<svg width="101" height="100" viewBox="0 0 101 100" fill="none" xmlns="http://www.w3.org/2000/svg">
<path d="M86.1774 69.7152H14.9283C11.597 69.7152 8.88679 67.0051 8.88679 63.6736V21.0776C8.88679 17.7463 11.597 15.0359 14.9283 15.0359H86.1774C89.5087 15.0359 92.2189 17.7461 92.2189 21.0776V63.6738C92.2189 67.0051 89.5087 69.7152 86.1774 69.7152ZM14.9283 17.0685C12.7177 17.0685 10.9193 18.867 10.9193 21.0776V63.6738C10.9193 65.8843 12.7177 67.6829 14.9283 67.6829H86.1774C88.388 67.6829 90.1864 65.8843 90.1864 63.6738V21.0776C90.1864 18.867 88.388 17.0685 86.1774 17.0685H14.9283Z" fill="#3E3766"/>
<path d="M85.1459 63.6585H15.9598C15.3986 63.6585 14.9435 63.2036 14.9435 62.6423V22.1089C14.9435 21.5477 15.3986 21.0927 15.9598 21.0927H85.1459C85.7073 21.0927 86.1622 21.5477 86.1622 22.1089V62.6423C86.1622 63.2036 85.7073 63.6585 85.1459 63.6585ZM16.976 60.626C16.976 61.1783 17.4237 61.626 17.976 61.626H83.1297C83.682 61.626 84.1297 61.1783 84.1297 60.626V24.1252C84.1297 23.5729 83.682 23.1252 83.1297 23.1252H17.976C17.4237 23.1252 16.976 23.5729 16.976 24.1252V60.626ZM32.6543 16.0533C32.0931 16.0533 31.638 15.5983 31.638 15.0371V9.67916C31.638 9.11798 32.0931 8.6629 32.6543 8.6629C33.2154 8.6629 33.6705 9.11798 33.6705 9.67916V15.0371C33.6705 15.5983 33.2154 16.0533 32.6543 16.0533Z" fill="#F9810D"/>
<path d="M37.721 10.6955H27.5877C27.0265 10.6955 26.5714 10.2405 26.5714 9.67928V5.42806C26.5714 4.86689 27.0265 4.4118 27.5877 4.4118H37.721C38.2822 4.4118 38.7373 4.86689 38.7373 5.42806V9.67949C38.7373 10.2405 38.2824 10.6955 37.721 10.6955ZM28.6039 8.66302H36.7047V6.44432H28.6039V8.66302ZM50.3005 16.0535C49.7393 16.0535 49.2842 15.5984 49.2842 15.0372V9.67928C49.2842 9.11811 49.7393 8.66302 50.3005 8.66302C50.8616 8.66302 51.3167 9.11811 51.3167 9.67928V15.0372C51.3167 15.5984 50.8616 16.0535 50.3005 16.0535Z" fill="#F9810D"/>
<path d="M55.3668 10.6955H45.2335C44.6723 10.6955 44.2172 10.2405 44.2172 9.67928V5.42806C44.2172 4.86689 44.6723 4.4118 45.2335 4.4118H55.3668C55.928 4.4118 56.3831 4.86689 56.3831 5.42806V9.67949C56.3831 10.2405 55.928 10.6955 55.3668 10.6955ZM46.2497 8.66302H54.3505V6.44432H46.2497V8.66302ZM67.9461 16.0535C67.3847 16.0535 66.9298 15.5984 66.9298 15.0372V9.67928C66.9298 9.11811 67.3847 8.66302 67.9461 8.66302C68.5074 8.66302 68.9623 9.11811 68.9623 9.67928V15.0372C68.9623 15.5984 68.5074 16.0535 67.9461 16.0535Z" fill="#F9810D"/>
<path d="M73.0133 10.6957H62.88C62.3186 10.6957 61.8637 10.2406 61.8637 9.6794V5.42819C61.8637 4.86701 62.3186 4.41193 62.88 4.41193H73.0133C73.5747 4.41193 74.0296 4.86701 74.0296 5.42819V9.67961C74.0296 10.2406 73.5745 10.6957 73.0133 10.6957ZM63.896 8.66315H71.9968V6.44445H63.896V8.66315Z" fill="#F9810D"/>
<path d="M38.6209 95.9065H29.0699C28.5087 95.9065 28.0537 95.4516 28.0537 94.8902V69.7315C28.0537 69.1701 28.5087 68.7152 29.0699 68.7152C29.6311 68.7152 30.0862 69.1701 30.0862 69.7315V93.8739H37.6047V69.7315C37.6047 69.1701 38.0598 68.7152 38.6209 68.7152C39.1821 68.7152 39.6372 69.1701 39.6372 69.7315V94.8902C39.6372 95.4516 39.1821 95.9065 38.6209 95.9065ZM72.0356 95.9065H62.4848C61.9234 95.9065 61.4685 95.4516 61.4685 94.8902V69.7315C61.4685 69.1701 61.9234 68.7152 62.4848 68.7152C63.0461 68.7152 63.501 69.1701 63.501 69.7315V93.8739H71.0193V69.7315C71.0193 69.1701 71.4742 68.7152 72.0356 68.7152C72.5969 68.7152 73.0518 69.1701 73.0518 69.7315V94.8902C73.0518 95.4516 72.5969 95.9065 72.0356 95.9065Z" fill="#3E3766"/>
</svg>
