<svg width="54" height="27" viewBox="0 0 54 27" fill="none" xmlns="http://www.w3.org/2000/svg">
<path d="M17.3189 0.120117C16.6686 0.120117 16.1714 0.654563 16.1714 1.26536V19.8564C16.1714 20.5054 16.7069 21.0017 17.3189 21.0017C17.9692 21.0017 18.4664 20.4672 18.4664 19.8564V1.26536C18.4664 0.616388 17.9309 0.120117 17.3189 0.120117Z" fill="#08B3FF"/>
<path d="M7.18233 7.56419C5.53755 7.56419 4.00752 8.13681 2.74524 9.2057V1.26536C2.74524 0.616389 2.20973 0.120117 1.59772 0.120117C0.985706 0.120117 0.450195 0.654563 0.450195 1.26536V14.2829C0.450195 16.0772 1.13871 17.7568 2.43924 19.0548C3.70151 20.3145 5.4228 21.0399 7.22059 21.0399C9.01837 21.0399 10.7014 20.3527 12.0019 19.0548C13.2642 17.795 13.991 16.0772 13.991 14.2829C13.991 12.4887 13.3025 10.809 12.0019 9.5111C10.7014 8.25134 8.98012 7.56419 7.18233 7.56419ZM7.18233 18.7112C4.73428 18.7112 2.74524 16.7261 2.74524 14.2829C2.74524 11.8398 4.73428 9.85467 7.18233 9.85467C9.63039 9.85467 11.6194 11.8398 11.6194 14.2829C11.6194 16.7261 9.63039 18.7112 7.18233 18.7112Z" fill="#08B3FF"/>
<path d="M45.6627 9.51096C44.4004 8.2512 42.6791 7.52588 40.8814 7.52588C39.0836 7.52588 37.4005 8.21302 36.1 9.51096C34.8377 10.7707 34.111 12.4886 34.111 14.2828C34.111 16.077 34.7995 17.7567 36.1 19.0546C37.3623 20.3144 39.0836 21.0397 40.8814 21.0397C41.8376 21.0397 42.7556 20.8489 43.5972 20.4671C44.4387 20.0854 45.1654 19.5891 45.7775 18.9401C46.2365 18.482 46.1982 17.7567 45.7392 17.2986C45.2802 16.8405 44.5534 16.8787 44.0944 17.3368C43.2529 18.2148 42.1054 18.7111 40.8814 18.7111C38.4333 18.7111 36.4443 16.726 36.4443 14.2828C36.4443 11.8396 38.4333 9.85454 40.8814 9.85454C42.9086 9.85454 44.6299 11.2288 45.1272 13.0994H38.9688C38.3185 13.0994 37.8213 13.6338 37.8213 14.2446C37.8213 14.8936 38.3568 15.3899 38.9688 15.3899H46.466C47.1162 15.3899 47.6135 14.8554 47.6135 14.2446C47.6135 12.4886 46.925 10.8089 45.6627 9.51096Z" fill="#08B3FF"/>
<path d="M30.745 7.56396C30.0947 7.56396 29.5975 8.09841 29.5975 8.70921V15.3898C29.5975 17.2222 28.1057 18.6728 26.3079 18.6728C24.4718 18.6728 23.0183 17.184 23.0183 15.3898V8.70921C23.0183 8.06024 22.4828 7.56396 21.8708 7.56396C21.2205 7.56396 20.7233 8.09841 20.7233 8.70921V15.3898C20.7233 18.4819 23.2478 21.0015 26.3461 21.0015C29.4444 21.0015 31.969 18.4819 31.969 15.3898V8.70921C31.9307 8.06024 31.3952 7.56396 30.745 7.56396Z" fill="#08B3FF"/>
<path d="M51.2082 21.9555C51.0935 21.9555 50.9787 21.9174 50.864 21.841C50.5962 21.6501 50.5197 21.2684 50.711 20.963C51.5525 19.7032 52.1645 18.2908 52.5088 16.802C52.5853 16.4584 52.9295 16.2675 53.2355 16.3439C53.5798 16.4202 53.771 16.7638 53.6945 17.0692C53.3503 18.7107 52.6618 20.2759 51.7055 21.6501C51.629 21.841 51.4377 21.9555 51.2082 21.9555Z" fill="#ED1B24"/>
<path d="M51.3591 8.05947C51.1678 8.05947 50.9766 7.94494 50.8236 7.79224C49.9821 6.4943 48.911 5.42541 47.6488 4.54739C47.381 4.35652 47.3045 3.97477 47.4958 3.66937C47.687 3.40215 48.0695 3.3258 48.3755 3.51667C49.7526 4.47104 50.9383 5.69263 51.8564 7.1051C52.0476 7.37232 51.9711 7.79224 51.6651 7.94494C51.5886 8.02129 51.4738 8.05947 51.3591 8.05947Z" fill="#BAD80A"/>
<path d="M53.3884 15.0078C53.0441 15.0078 52.7763 14.7405 52.7763 14.397C52.7763 12.87 52.5086 11.3812 51.9348 9.93051C51.8201 9.62512 51.9731 9.24337 52.2791 9.12884C52.5851 9.01432 52.9676 9.16702 53.0824 9.47242C53.6944 11.0376 54.0004 12.7173 54.0004 14.397C54.0004 14.7405 53.7326 15.0078 53.3884 15.0078Z" fill="#08B3FF"/>
<path d="M49.1416 9.20551C48.9504 9.20551 48.7591 9.12916 48.6444 8.93828C48.0324 8.06026 47.3056 7.33494 46.4641 6.72415C46.1963 6.53328 46.1198 6.15153 46.3111 5.84613C46.5023 5.57891 46.8848 5.50256 47.1908 5.69343C48.1471 6.38058 48.9886 7.25859 49.6389 8.21296C49.8301 8.48019 49.7536 8.86193 49.4859 9.09098C49.3711 9.16733 49.2564 9.20551 49.1416 9.20551Z" fill="#BAD80A"/>
<path d="M50.9017 14.7394C50.5574 14.7394 50.2897 14.4722 50.2897 14.1286C50.2897 13.0979 50.0984 12.0672 49.7159 11.0746C49.6011 10.7692 49.7541 10.3875 50.0984 10.273C50.4044 10.1584 50.7869 10.3111 50.9017 10.6547C51.3224 11.7618 51.5137 12.9452 51.5519 14.1286C51.5519 14.4722 51.2842 14.7394 50.9017 14.7394C50.9399 14.7394 50.9399 14.7394 50.9017 14.7394Z" fill="#08B3FF"/>
<path d="M49.332 20.3519C49.2173 20.3519 49.1025 20.3137 48.9878 20.2373C48.6818 20.0465 48.6053 19.6647 48.7965 19.3975C49.3703 18.5195 49.7911 17.5651 50.0206 16.5344C50.0971 16.1908 50.4413 15.9999 50.7856 16.0763C51.1298 16.1526 51.3211 16.4962 51.2446 16.8398C50.9768 17.985 50.4796 19.0921 49.8676 20.0846C49.7146 20.2373 49.5233 20.3519 49.332 20.3519Z" fill="#ED1B24"/>
<path d="M45.776 3.4027C45.6995 3.4027 45.623 3.4027 45.5465 3.36452C44.1313 2.75373 42.6395 2.44833 41.1094 2.41016C40.7652 2.41016 40.4974 2.10476 40.4974 1.76119C40.4974 1.41761 40.7652 1.15039 41.1094 1.15039C42.7925 1.18857 44.4373 1.53214 46.0056 2.18111C46.3116 2.29563 46.4646 2.67738 46.3498 2.98278C46.2351 3.25 46.0056 3.4027 45.776 3.4027Z" fill="#F1C741"/>
<path d="M44.5515 5.57839C44.475 5.57839 44.3985 5.57839 44.322 5.54021C43.3275 5.15847 42.333 4.92942 41.262 4.89124C40.9177 4.89124 40.65 4.58585 40.6882 4.24227C40.6882 3.8987 40.9942 3.63148 41.3385 3.66965C42.5243 3.70783 43.6718 3.97505 44.781 4.39497C45.0871 4.5095 45.2401 4.89124 45.1253 5.19664C45.0488 5.42569 44.8193 5.57839 44.5515 5.57839Z" fill="#F1C741"/>
<path d="M34.1092 4.39468C33.918 4.39468 33.6885 4.28016 33.5737 4.12746C33.3825 3.82206 33.4972 3.44032 33.765 3.24944C35.1803 2.33325 36.7485 1.72245 38.4316 1.41706C38.7758 1.34071 39.0818 1.56975 39.1583 1.91333C39.2348 2.2569 39.0053 2.5623 38.6611 2.63865C37.1693 2.94404 35.7158 3.47849 34.4535 4.31833C34.3387 4.35651 34.224 4.39468 34.1092 4.39468Z" fill="#FFED08"/>
<path d="M35.6777 6.34128C35.4865 6.34128 35.257 6.22676 35.1422 6.03588C34.951 5.73049 35.0657 5.34874 35.3335 5.19604C36.3662 4.58524 37.4373 4.12715 38.623 3.8981C38.9673 3.82175 39.2733 4.0508 39.3498 4.3562C39.4263 4.69977 39.1968 5.00517 38.8908 5.08152C37.858 5.31056 36.9017 5.69231 35.9837 6.22676C35.869 6.30311 35.7542 6.34128 35.6777 6.34128Z" fill="#FFED08"/>
<path d="M4.12227 24.0171C4.04577 23.9789 3.93102 23.9408 3.81627 23.9408C3.70151 23.9408 3.54851 23.9789 3.43376 24.0553C3.43376 24.208 3.39551 24.3989 3.39551 24.5516C3.39551 24.7043 3.35726 24.8951 3.35726 25.0478C3.35726 25.2005 3.319 25.3914 3.28075 25.5441C3.2425 25.735 3.2425 25.8877 3.20425 26.0785C3.166 25.964 3.166 25.8495 3.12775 25.7731C3.0895 25.6586 3.0895 25.5823 3.05125 25.4678C3.013 25.3532 3.013 25.2769 2.97475 25.1624C2.9365 25.0478 2.89825 24.9333 2.86 24.8188C2.86 24.7424 2.78349 24.7043 2.70699 24.6661C2.63049 24.6279 2.51574 24.5897 2.36273 24.5897C2.28623 24.5897 2.20973 24.5897 2.13323 24.6279C2.05673 24.6661 2.01848 24.6661 1.98023 24.6661C1.94198 24.8188 1.90373 24.9715 1.90373 25.086C1.86547 25.2005 1.82722 25.3151 1.82722 25.4296C1.78897 25.5441 1.78897 25.6586 1.75072 25.735C1.71247 25.8495 1.71247 25.964 1.67422 26.0785H1.63597C1.63597 26.0404 1.63597 25.964 1.59772 25.8877C1.59772 25.8113 1.55947 25.6968 1.55947 25.5823C1.52122 25.4296 1.52122 25.2769 1.48297 25.0478C1.44472 24.8188 1.40647 24.5897 1.36821 24.2462C1.36821 24.1316 1.29171 24.0553 1.21521 23.9789C1.13871 23.9408 1.02396 23.9026 0.909205 23.9026C0.832703 23.9026 0.717951 23.9026 0.641449 23.9408C0.564948 23.9789 0.488446 24.0171 0.450195 24.0553C0.450195 24.1698 0.488446 24.3225 0.488446 24.4752C0.526697 24.6279 0.526697 24.7806 0.564948 24.9715C0.603198 25.1242 0.641449 25.3151 0.6797 25.4678C0.717951 25.6204 0.756202 25.7732 0.794452 25.9258C0.832703 26.0785 0.870954 26.1931 0.909205 26.3076C0.947456 26.4221 0.985706 26.4985 0.985706 26.5748C1.02396 26.6512 1.10046 26.6893 1.21521 26.7275C1.32996 26.7657 1.44472 26.8039 1.59772 26.8039C1.71247 26.8039 1.82722 26.8039 1.90373 26.7657C1.98023 26.7275 2.05673 26.6893 2.13323 26.6512C2.17148 26.4985 2.20973 26.3458 2.24798 26.1549C2.28623 25.964 2.32448 25.7732 2.40099 25.5441C2.43924 25.735 2.51574 25.9258 2.55399 26.1167C2.59224 26.2694 2.63049 26.4221 2.66874 26.5748C2.70699 26.6512 2.74524 26.6893 2.86 26.7275C2.97475 26.7657 3.0895 26.8039 3.2425 26.8039C3.35726 26.8039 3.47201 26.8039 3.58676 26.7657C3.70151 26.7275 3.77801 26.6893 3.81627 26.6512C3.85452 26.5748 3.89277 26.4985 3.93102 26.3458C3.96927 26.2312 4.00752 26.0785 4.04577 25.9258C4.08402 25.7732 4.12227 25.6205 4.16052 25.4296C4.19877 25.2769 4.23702 25.086 4.23702 24.9333C4.27527 24.7806 4.27527 24.6279 4.27527 24.5134C4.27527 24.3989 4.31353 24.2843 4.31353 24.208C4.27527 24.1316 4.23702 24.0553 4.12227 24.0171Z" fill="#666666"/>
<path d="M6.95149 26.1547H5.76571V25.6584H6.64548C6.72198 25.6584 6.79848 25.6202 6.83673 25.582C6.87498 25.5439 6.91324 25.4293 6.91324 25.3148C6.91324 25.2385 6.91324 25.2003 6.87498 25.1239C6.87498 25.0858 6.83673 25.0094 6.79848 25.0094H5.72746V24.5895H6.72198C6.79848 24.5895 6.87498 24.5513 6.91324 24.5131C6.95149 24.475 6.98974 24.3604 6.98974 24.2459C6.98974 24.1696 6.98974 24.1314 6.95149 24.055C6.95149 24.0169 6.91324 23.9405 6.87498 23.9023H5.34495C5.19195 23.9023 5.11545 23.9405 5.03895 24.0169C4.96245 24.0932 4.92419 24.2077 4.92419 24.3223V26.3074C4.92419 26.4601 4.96245 26.5364 5.03895 26.6127C5.11545 26.6891 5.2302 26.7273 5.34495 26.7273H6.72198C6.79848 26.7273 6.87498 26.6891 6.91324 26.6509C6.95149 26.6128 6.98974 26.4982 6.98974 26.3837C6.98974 26.3074 6.98974 26.2692 6.95149 26.1928C6.98974 26.231 6.98974 26.1928 6.95149 26.1547Z" fill="#666666"/>
<path d="M9.63047 25.2766C9.78347 25.2385 9.85998 25.1621 9.97473 25.0476C10.0512 24.9331 10.0895 24.8185 10.0895 24.704C10.0895 24.4368 9.97473 24.2077 9.78348 24.0932C9.55397 23.9405 9.24796 23.9023 8.86546 23.9023C8.71245 23.9023 8.5212 23.9023 8.3682 23.9405C8.21519 23.9405 8.06219 23.9787 7.98569 24.0169C7.90919 24.055 7.87094 24.055 7.83268 24.0932C7.79443 24.1314 7.79443 24.1696 7.79443 24.2459V26.4219C7.79443 26.5746 7.87094 26.6891 8.06219 26.7654C8.13869 26.8036 8.17694 26.8036 8.25344 26.8418C8.32994 26.8418 8.40645 26.88 8.48295 26.88C8.55945 26.88 8.63595 26.88 8.71245 26.88C8.78895 26.88 8.86546 26.88 8.90371 26.88C9.32447 26.88 9.66872 26.8036 9.89823 26.6509C10.1277 26.4982 10.2425 26.2692 10.2425 25.9638C10.2425 25.7729 10.2042 25.6584 10.0895 25.5439C9.93648 25.3912 9.78347 25.3148 9.63047 25.2766ZM8.55945 24.5131C8.5977 24.5131 8.63595 24.5131 8.71245 24.5131C8.78895 24.5131 8.8272 24.5131 8.86546 24.5131C9.01846 24.5131 9.09496 24.5513 9.17146 24.5895C9.24796 24.6277 9.28621 24.704 9.28621 24.7804C9.28621 24.8949 9.24796 24.9331 9.20971 25.0094C9.13321 25.0476 9.05671 25.0858 8.90371 25.0858H8.55945V24.5131ZM9.24796 26.1547C9.17146 26.1928 9.05671 26.231 8.94196 26.231C8.86546 26.231 8.8272 26.231 8.7507 26.231C8.6742 26.231 8.63595 26.231 8.5977 26.1928V25.6202H8.98021C9.13321 25.6202 9.20971 25.6584 9.28621 25.6966C9.36272 25.7347 9.40097 25.8111 9.40097 25.9256C9.36272 26.0401 9.32447 26.1165 9.24796 26.1547Z" fill="#666666"/>
<path d="M14.2596 24.2459C14.1066 24.1314 13.9536 24.0169 13.7624 23.9787C13.5711 23.9023 13.3416 23.9023 13.1121 23.9023C12.9974 23.9023 12.8444 23.9023 12.6914 23.9405C12.5384 23.9405 12.3854 23.9787 12.2706 24.0169C12.1941 24.055 12.1558 24.055 12.1176 24.0932C12.0793 24.1314 12.0793 24.1696 12.0793 24.2459V26.4219C12.0793 26.5746 12.1558 26.6891 12.3471 26.7654C12.4236 26.8036 12.4619 26.8036 12.5384 26.8418C12.6149 26.8418 12.6914 26.88 12.7679 26.88C12.8444 26.88 12.9209 26.88 12.9974 26.88C13.0739 26.88 13.1121 26.88 13.1886 26.88C13.4181 26.88 13.6476 26.8418 13.8389 26.8036C14.0301 26.7273 14.1831 26.6509 14.3361 26.5364C14.4891 26.4219 14.5656 26.2692 14.6421 26.0783C14.7187 25.8874 14.7569 25.6584 14.7569 25.4293C14.7569 25.1621 14.7187 24.9331 14.6421 24.7804C14.5274 24.5131 14.4126 24.3604 14.2596 24.2459ZM13.8006 25.7729C13.7624 25.8874 13.7241 25.9638 13.6476 26.0401C13.5711 26.1165 13.4946 26.1547 13.4181 26.1928C13.3416 26.231 13.2269 26.231 13.1121 26.231C13.0739 26.231 13.0356 26.231 12.9591 26.231C12.9209 26.231 12.8826 26.231 12.8444 26.231V24.5895C12.8826 24.5895 12.9209 24.5895 12.9974 24.5895C13.0356 24.5895 13.0739 24.5895 13.1121 24.5895C13.3416 24.5895 13.4946 24.6658 13.6476 24.8185C13.7624 24.9712 13.8389 25.1621 13.8389 25.4675C13.8771 25.5439 13.8389 25.6584 13.8006 25.7729Z" fill="#666666"/>
<path d="M17.4339 26.1547H16.2481V25.6584H17.1279C17.2044 25.6584 17.2809 25.6202 17.3192 25.582C17.3574 25.5439 17.3957 25.4293 17.3957 25.3148C17.3957 25.2385 17.3957 25.2003 17.3574 25.1239C17.3574 25.0858 17.3192 25.0094 17.2809 25.0094H16.2099V24.5895H17.2044C17.2809 24.5895 17.3574 24.5513 17.3957 24.5131C17.4339 24.475 17.4722 24.3604 17.4722 24.2459C17.4722 24.1696 17.4722 24.1314 17.4339 24.055C17.4339 24.0169 17.3957 23.9405 17.3574 23.9023H15.8274C15.6744 23.9023 15.5979 23.9405 15.5214 24.0169C15.4449 24.0932 15.4066 24.2077 15.4066 24.3223V26.3074C15.4066 26.4601 15.4449 26.5364 15.5214 26.6127C15.5979 26.6891 15.7126 26.7273 15.8274 26.7273H17.2044C17.2809 26.7273 17.3574 26.6891 17.3957 26.6509C17.4339 26.6128 17.4722 26.4982 17.4722 26.3837C17.4722 26.3074 17.4722 26.2692 17.4339 26.1928C17.4722 26.231 17.4339 26.1928 17.4339 26.1547Z" fill="#666666"/>
<path d="M20.1491 25.3912C19.9961 25.2385 19.7666 25.124 19.4606 25.0477L19.2311 24.9713C19.1546 24.9332 19.0781 24.9331 19.0398 24.895C19.0016 24.8568 18.9633 24.8186 18.9633 24.7805C18.9633 24.7041 19.0016 24.6659 19.0781 24.6278C19.1546 24.5896 19.2311 24.5514 19.3841 24.5514C19.5371 24.5514 19.6519 24.5514 19.7666 24.5896C19.8814 24.6278 19.9579 24.6659 20.0344 24.7041C20.0726 24.6659 20.1491 24.6278 20.1874 24.5514C20.2256 24.5132 20.2256 24.4369 20.2256 24.3605C20.2256 24.2842 20.1874 24.2078 20.1491 24.1315C20.1109 24.0551 20.0344 24.017 19.9579 23.9788C19.8814 23.9406 19.7666 23.9024 19.6519 23.9024C19.5371 23.9024 19.4224 23.8643 19.2694 23.8643C18.8868 23.8643 18.6191 23.9406 18.4278 24.0933C18.2366 24.246 18.1218 24.4751 18.1218 24.7423C18.1218 24.895 18.1601 25.0095 18.1983 25.0858C18.2366 25.1622 18.3131 25.2767 18.3896 25.3149C18.4661 25.3912 18.5808 25.4294 18.6956 25.5058C18.8103 25.5439 18.9251 25.6203 19.0781 25.6585L19.2694 25.7348C19.3459 25.773 19.4224 25.8112 19.4989 25.8493C19.5371 25.8875 19.5754 25.9257 19.5754 26.002C19.5754 26.0784 19.5371 26.1166 19.4989 26.1547C19.4224 26.1929 19.3459 26.2311 19.1928 26.2311C19.0398 26.2311 18.8868 26.1929 18.7721 26.1547C18.6573 26.1166 18.5426 26.0402 18.4661 25.9639C18.3896 26.002 18.3513 26.0402 18.2748 26.1166C18.2366 26.1929 18.1983 26.2693 18.1983 26.3456C18.1983 26.422 18.2366 26.4983 18.2748 26.5747C18.3131 26.651 18.3896 26.6892 18.5043 26.7274C18.5808 26.7655 18.6956 26.8037 18.8103 26.8419C18.9251 26.8801 19.0781 26.8801 19.1928 26.8801C19.6136 26.8801 19.9196 26.8037 20.1109 26.651C20.3021 26.4983 20.4169 26.2693 20.4169 26.002C20.3786 25.7348 20.3021 25.5439 20.1491 25.3912Z" fill="#666666"/>
<path d="M21.7561 23.9787C21.7178 23.9405 21.6796 23.9405 21.6031 23.9023C21.5648 23.9023 21.4883 23.9023 21.4118 23.9023C21.3353 23.9023 21.2588 23.9023 21.1823 23.9023C21.1058 23.9023 21.0675 23.9405 21.0293 23.9405V26.4219C21.0293 26.4982 21.0293 26.5746 21.0675 26.6127C21.0675 26.6509 21.1058 26.6891 21.1441 26.7273C21.1823 26.7654 21.2206 26.7654 21.2971 26.8036C21.3353 26.8036 21.4118 26.8036 21.4883 26.8036C21.5648 26.8036 21.6413 26.8036 21.7178 26.8036C21.7943 26.8036 21.8326 26.8036 21.8708 26.7654V24.2841C21.8708 24.2077 21.8708 24.1314 21.8326 24.0932C21.8326 24.055 21.7943 24.0169 21.7561 23.9787Z" fill="#666666"/>
<path d="M25.0069 25.0858H24.2036C24.1271 25.0858 24.0506 25.124 24.0124 25.1622C23.9741 25.2004 23.9359 25.2767 23.9359 25.3912C23.9359 25.4676 23.9359 25.5058 23.9741 25.5821C23.9741 25.6203 24.0124 25.6966 24.0124 25.7348H24.5096V26.1929C24.4714 26.1929 24.4331 26.2311 24.3949 26.2311C24.3566 26.2311 24.2801 26.2311 24.2036 26.2311C24.0889 26.2311 24.0124 26.2311 23.8976 26.1929C23.8211 26.1547 23.7064 26.1166 23.6681 26.0402C23.5916 25.9639 23.5534 25.8875 23.5151 25.773C23.4769 25.6585 23.4386 25.5439 23.4386 25.3912C23.4386 25.124 23.5151 24.9332 23.6681 24.7805C23.8211 24.6278 24.0124 24.5514 24.2801 24.5514C24.4331 24.5514 24.5479 24.5896 24.6626 24.6278C24.7774 24.6659 24.8921 24.7041 24.9686 24.7805C25.0069 24.7423 25.0834 24.7041 25.1216 24.6278C25.1599 24.5514 25.1981 24.5132 25.1981 24.3987C25.1981 24.246 25.1216 24.1315 24.9304 24.017C24.7391 23.9406 24.5096 23.8643 24.2419 23.8643C24.0506 23.8643 23.8211 23.9024 23.6299 23.9406C23.4386 24.017 23.2474 24.0933 23.0943 24.2078C22.9413 24.3224 22.8266 24.4751 22.7118 24.6659C22.6353 24.8568 22.5588 25.0858 22.5588 25.3531C22.5588 25.5821 22.5971 25.8112 22.6736 26.002C22.7501 26.1929 22.8648 26.3456 23.0178 26.4601C23.1709 26.5747 23.3239 26.6892 23.5151 26.7274C23.7064 26.8037 23.9359 26.8037 24.1654 26.8037C24.2419 26.8037 24.3184 26.8037 24.4331 26.8037C24.5096 26.8037 24.5861 26.7655 24.6626 26.7655C24.7391 26.7655 24.8156 26.7274 24.8921 26.6892C24.9686 26.651 25.0069 26.651 25.0451 26.6128C25.1216 26.5747 25.1599 26.5365 25.1981 26.4601C25.2364 26.422 25.2364 26.3456 25.2364 26.2311V25.2767C25.2364 25.2004 25.1981 25.124 25.1599 25.0477C25.1599 25.0858 25.0834 25.0858 25.0069 25.0858Z" fill="#666666"/>
<path d="M28.5261 23.9787C28.4495 23.9405 28.3348 23.9023 28.22 23.9023C28.1435 23.9023 28.067 23.9023 28.0288 23.9023C27.9523 23.9023 27.914 23.9023 27.8758 23.9405V24.704C27.8758 24.8567 27.8758 25.0476 27.8758 25.2003C27.8758 25.353 27.8758 25.5439 27.914 25.6966H27.8758C27.8375 25.582 27.7993 25.4675 27.761 25.3912C27.7228 25.3148 27.6845 25.2003 27.6463 25.1239L27.1873 24.1696C27.1108 24.055 27.0343 23.9787 26.9195 23.9405C26.8048 23.9023 26.69 23.9023 26.5753 23.9023C26.4605 23.9023 26.384 23.9023 26.2693 23.9405C26.1928 23.9787 26.1163 24.0169 26.078 24.0932V26.4219C26.078 26.4982 26.078 26.5746 26.1163 26.6127C26.1163 26.6509 26.1545 26.6891 26.1928 26.7273C26.231 26.7654 26.2693 26.7654 26.3075 26.7654C26.3458 26.7654 26.4223 26.7654 26.4988 26.7654C26.5753 26.7654 26.6518 26.7654 26.69 26.7654C26.7665 26.7654 26.8048 26.7654 26.843 26.7273V26.002C26.843 25.8493 26.843 25.6584 26.843 25.5057C26.843 25.3148 26.843 25.1621 26.8048 25.0094H26.843C26.8813 25.1239 26.9195 25.2385 26.9578 25.3148C26.996 25.3912 27.0343 25.5057 27.0725 25.582L27.5315 26.5364C27.608 26.6509 27.6845 26.7654 27.7993 26.7654C27.914 26.8036 28.0288 26.8036 28.1435 26.8036C28.2583 26.8036 28.373 26.8036 28.4496 26.7654C28.5261 26.7273 28.6026 26.7273 28.6408 26.6509V24.2459C28.6408 24.1314 28.6026 24.0169 28.5261 23.9787Z" fill="#666666"/>
<path d="M33.2312 25.3912C33.2312 25.3149 33.2312 25.2767 33.2312 25.2004C33.2312 25.1622 33.1929 25.0858 33.1929 25.0477C33.1547 25.0095 33.1164 24.9713 33.0781 24.9713C33.0399 24.9332 32.9634 24.9332 32.8869 24.9332C32.8486 24.9332 32.7721 24.9332 32.7339 24.9332C32.6956 24.9332 32.6191 24.9713 32.5809 24.9713C32.5809 25.0858 32.5809 25.2004 32.5809 25.2767C32.5809 25.3531 32.5426 25.4676 32.5426 25.5058L31.9306 24.9332C31.8541 24.8568 31.8159 24.8186 31.7776 24.7805C31.7011 24.7805 31.7011 24.7423 31.7011 24.7041C31.7011 24.6278 31.7394 24.5896 31.7776 24.5514C31.8159 24.5132 31.8924 24.5132 31.9689 24.5132C32.0071 24.5132 32.0836 24.5132 32.1219 24.5132C32.1601 24.5132 32.1984 24.5514 32.2366 24.5514C32.2749 24.5132 32.3131 24.4751 32.3131 24.3987C32.3514 24.3605 32.3514 24.2842 32.3514 24.246C32.3514 24.1315 32.3131 24.0551 32.2366 23.9788C32.1601 23.9024 32.0071 23.8643 31.8159 23.8643C31.6629 23.8643 31.5481 23.8643 31.4334 23.9024C31.3186 23.9406 31.2421 23.9788 31.1656 24.0551C31.0891 24.1315 31.0509 24.2078 30.9744 24.2842C30.9361 24.3605 30.8979 24.4751 30.8979 24.5514C30.8979 24.6278 30.8979 24.7041 30.9361 24.7805C30.9744 24.8568 31.0126 24.9332 31.0509 25.0095C30.9744 25.0477 30.8979 25.0859 30.8214 25.124C30.7448 25.1622 30.7066 25.2385 30.6301 25.3149C30.5918 25.3912 30.5153 25.4676 30.4771 25.5439C30.4388 25.6203 30.4388 25.7348 30.4388 25.8493C30.4388 26.002 30.4771 26.1166 30.5153 26.2311C30.5536 26.3456 30.6301 26.4601 30.7449 26.5365C30.8596 26.6128 30.9744 26.6892 31.0891 26.7274C31.2421 26.7655 31.3951 26.8037 31.5864 26.8037C31.7776 26.8037 31.9306 26.7655 32.0836 26.7274C32.2366 26.6892 32.3514 26.6128 32.4661 26.5365L32.5426 26.6128C32.6574 26.7274 32.7721 26.8037 32.9251 26.8037C33.0399 26.8037 33.1164 26.7655 33.1929 26.6892C33.2694 26.6128 33.3077 26.5365 33.3077 26.3838L32.9634 26.0402C33.1547 25.8875 33.2312 25.6203 33.2312 25.3912ZM31.8924 26.2311C31.8159 26.2311 31.7394 26.2693 31.7011 26.2693C31.5481 26.2693 31.4334 26.2311 31.3569 26.1547C31.2804 26.0784 31.2421 26.002 31.2421 25.8875C31.2421 25.8112 31.2804 25.773 31.3186 25.6966C31.3569 25.6203 31.4334 25.5821 31.4716 25.5439L32.0836 26.1547C32.0454 26.1929 31.9689 26.1929 31.8924 26.2311Z" fill="#666666"/>
<path d="M38.3955 25.9632C38.3955 25.8105 38.3573 25.6196 38.3573 25.4288C38.3573 25.2379 38.319 25.0852 38.319 24.9325C38.319 24.7798 38.2808 24.6271 38.2808 24.5126C38.2808 24.398 38.2425 24.2835 38.2425 24.2072C38.2425 24.1308 38.166 24.0545 38.0895 24.0163C37.9748 23.9781 37.86 23.9399 37.707 23.9399C37.6305 23.9399 37.5158 23.9399 37.4775 23.9781C37.401 23.9781 37.3627 24.0163 37.2862 24.0545C37.2097 24.2072 37.1715 24.4362 37.095 24.6653C37.0185 24.8943 36.942 25.1615 36.8655 25.4288H36.8272C36.789 25.3524 36.789 25.2379 36.7507 25.1615C36.7125 25.047 36.6742 24.9707 36.636 24.8561C36.5977 24.7416 36.5595 24.6653 36.5212 24.5507C36.483 24.4362 36.4447 24.3599 36.4447 24.2835C36.4065 24.169 36.33 24.0926 36.2535 24.0163C36.177 23.9781 36.024 23.9399 35.871 23.9399C35.718 23.9399 35.6032 23.9781 35.5267 24.0163C35.4502 24.0545 35.3737 24.0926 35.3737 24.1308L35.2207 26.4976C35.2207 26.6122 35.259 26.6885 35.3355 26.7267C35.412 26.7649 35.5267 26.803 35.6415 26.803C35.718 26.803 35.7562 26.803 35.8327 26.803C35.9092 26.803 35.9475 26.7649 35.9857 26.7649C35.9857 26.574 35.9857 26.4213 36.024 26.2686C36.024 26.1159 36.024 25.9632 36.024 25.8487C36.024 25.696 36.024 25.5433 36.024 25.3906C36.024 25.2379 36.024 25.0852 36.0622 24.8943H36.1005C36.1387 25.0088 36.177 25.1615 36.2152 25.3524C36.2535 25.5051 36.33 25.7342 36.4447 26.0014C36.483 26.0777 36.5212 26.1159 36.5977 26.1541C36.6742 26.1922 36.7507 26.1922 36.8655 26.1922C36.942 26.1922 37.0185 26.1922 37.095 26.1541C37.1715 26.1159 37.2097 26.1159 37.248 26.0777C37.3245 25.7723 37.401 25.5433 37.4775 25.3524C37.554 25.1615 37.5923 25.0088 37.6305 24.8943H37.6688C37.6688 25.0852 37.6688 25.3142 37.707 25.5815C37.707 25.8487 37.707 26.1541 37.7453 26.4976C37.7453 26.6122 37.7835 26.6885 37.86 26.7267C37.9365 26.7649 38.0513 26.803 38.166 26.803C38.2425 26.803 38.319 26.803 38.3955 26.7649C38.472 26.7649 38.5103 26.7267 38.5485 26.6885C38.5485 26.6122 38.5485 26.4976 38.5485 26.3831C38.3955 26.2686 38.3955 26.1159 38.3955 25.9632Z" fill="#666666"/>
<path d="M41.5693 24.2456C41.4163 24.1311 41.2633 24.0166 41.1103 23.9402C40.919 23.8639 40.7278 23.8257 40.5365 23.8257C40.3453 23.8257 40.1158 23.8639 39.9628 23.9402C39.7715 24.0166 39.6185 24.0929 39.5038 24.2456C39.389 24.3601 39.2743 24.5128 39.1978 24.7037C39.1213 24.8946 39.083 25.1236 39.083 25.3527C39.083 25.5817 39.1213 25.8108 39.1978 26.0016C39.2743 26.1925 39.389 26.3452 39.5038 26.4597C39.6185 26.5743 39.8098 26.6888 39.9628 26.7651C40.154 26.8415 40.3453 26.8797 40.5365 26.8797C40.766 26.8797 40.9573 26.8415 41.1103 26.7651C41.3016 26.6888 41.4546 26.6124 41.5693 26.4597C41.6841 26.3452 41.7988 26.1925 41.8753 26.0016C41.9518 25.8108 41.9901 25.5817 41.9901 25.3527C41.9901 25.1236 41.9518 24.8946 41.8753 24.7037C41.7988 24.5128 41.6841 24.3601 41.5693 24.2456ZM40.9955 26.0016C40.8808 26.1543 40.7278 26.2307 40.5365 26.2307C40.3453 26.2307 40.1923 26.1543 40.0775 26.0016C39.9628 25.8489 39.8863 25.6581 39.8863 25.3527C39.8863 25.0854 39.9628 24.8564 40.0775 24.7037C40.1923 24.551 40.3453 24.5128 40.5365 24.5128C40.7278 24.5128 40.8808 24.5892 40.9955 24.7419C41.1103 24.8946 41.1485 25.0854 41.1485 25.3908C41.1485 25.6581 41.1103 25.8489 40.9955 26.0016Z" fill="#666666"/>
<path d="M44.514 25.6966C44.667 25.6202 44.7818 25.5057 44.8583 25.3912C44.973 25.2385 45.0113 25.0858 45.0113 24.8949C45.0113 24.5895 44.8965 24.3223 44.667 24.1696C44.4375 23.9787 44.1315 23.9023 43.7108 23.9023C43.5577 23.9023 43.4047 23.9023 43.2517 23.9405C43.0987 23.9405 42.984 23.9787 42.8692 24.0169C42.7927 24.055 42.7545 24.055 42.7162 24.0932C42.678 24.1314 42.678 24.1696 42.678 24.2459V26.4601C42.678 26.5364 42.678 26.6128 42.7162 26.6509C42.7162 26.6891 42.7545 26.7273 42.7927 26.7654C42.831 26.8036 42.8692 26.8036 42.9457 26.8418C42.984 26.8418 43.0605 26.8418 43.137 26.8418C43.2135 26.8418 43.29 26.8418 43.3665 26.8418C43.443 26.8418 43.4812 26.8418 43.5195 26.8036V25.8874H43.749L44.1315 26.5364C44.1698 26.5746 44.208 26.6128 44.208 26.6509C44.2463 26.6891 44.2845 26.7273 44.3228 26.7654C44.361 26.8036 44.3993 26.8036 44.4375 26.8418C44.4758 26.8418 44.5523 26.88 44.6288 26.88C44.7435 26.88 44.82 26.8418 44.8965 26.8036C44.973 26.7273 45.0495 26.6509 45.0495 26.5364C44.973 26.4219 44.8965 26.3074 44.7818 26.1547C44.7435 26.002 44.6288 25.8493 44.514 25.6966ZM44.0933 25.1621C44.0168 25.2385 43.9403 25.2385 43.8255 25.2385H43.5195V24.5513C43.5577 24.5513 43.596 24.5513 43.596 24.5513C43.6342 24.5513 43.6725 24.5513 43.7108 24.5513C43.8638 24.5513 43.9785 24.5895 44.055 24.6277C44.1315 24.704 44.1698 24.7804 44.1698 24.8949C44.208 25.0094 44.1698 25.0858 44.0933 25.1621Z" fill="#666666"/>
<path d="M47.8034 26.1547H46.6176V25.6584H47.4974C47.5739 25.6584 47.6504 25.6202 47.6887 25.582C47.7269 25.5439 47.7652 25.4293 47.7652 25.3148C47.7652 25.2385 47.7652 25.2003 47.7269 25.1239C47.7269 25.0858 47.6887 25.0094 47.6504 25.0094H46.5794V24.5895H47.5739C47.6504 24.5895 47.7269 24.5513 47.7652 24.5131C47.8034 24.475 47.8417 24.3604 47.8417 24.2459C47.8417 24.1696 47.8417 24.1314 47.8034 24.055C47.8034 24.0169 47.7652 23.9405 47.7269 23.9023H46.1969C46.0439 23.9023 45.9674 23.9405 45.8909 24.0169C45.8144 24.0932 45.7761 24.2077 45.7761 24.3223V26.3074C45.7761 26.4601 45.8144 26.5364 45.8909 26.6127C45.9674 26.6891 46.0821 26.7273 46.1969 26.7273H47.5739C47.6504 26.7273 47.7269 26.6891 47.7652 26.6509C47.8034 26.6128 47.8417 26.4982 47.8417 26.3837C47.8417 26.3074 47.8417 26.2692 47.8034 26.1928C47.8417 26.231 47.8034 26.1928 47.8034 26.1547Z" fill="#666666"/>
<path d="M50.0232 25.9634C49.8702 25.9634 49.7555 26.0016 49.679 26.0779C49.6025 26.1543 49.5642 26.2688 49.5642 26.4215C49.5642 26.536 49.6025 26.6505 49.679 26.765C49.7555 26.8414 49.8702 26.8796 50.0232 26.8796C50.1762 26.8796 50.291 26.8414 50.3675 26.765C50.444 26.6887 50.4822 26.5742 50.4822 26.4215C50.4822 26.307 50.444 26.1924 50.3675 26.0779C50.2527 26.0016 50.1762 25.9634 50.0232 25.9634Z" fill="#666666"/>
<path d="M51.7061 26.0779C51.6296 26.0016 51.5148 25.9634 51.3618 25.9634C51.2088 25.9634 51.0941 26.0016 51.0176 26.0779C50.9411 26.1543 50.9028 26.2688 50.9028 26.4215C50.9028 26.536 50.9411 26.6505 51.0176 26.765C51.0941 26.8414 51.2088 26.8796 51.3618 26.8796C51.5148 26.8796 51.6296 26.8414 51.7061 26.765C51.7826 26.6887 51.8209 26.5742 51.8209 26.4215C51.8209 26.2688 51.7826 26.1543 51.7061 26.0779Z" fill="#666666"/>
</svg>
