<svg width="22" height="22" viewBox="0 0 22 22" fill="none" xmlns="http://www.w3.org/2000/svg">
<rect x="0.125" y="-0.125" width="20.25" height="20.25" rx="10.125" transform="matrix(-1 0 0 1 21.25 1)" fill="#F5F5F5"/>
<rect x="0.125" y="-0.125" width="20.25" height="20.25" rx="10.125" transform="matrix(-1 0 0 1 21.25 1)" stroke="#E98A31" stroke-width="0.25"/>
<path d="M7.2286 11.5159C7.33931 11.5159 7.45506 11.4807 7.56578 11.4555C7.78999 11.4061 8.01033 11.3405 8.22506 11.2593C8.45853 11.1743 8.71516 11.1787 8.94557 11.2716C9.17599 11.3646 9.3639 11.5394 9.47315 11.7625L9.58387 11.989C10.074 11.7163 10.5245 11.3776 10.9225 10.9825C11.3177 10.5844 11.6564 10.134 11.9291 9.64378L11.7177 9.50287C11.4946 9.39362 11.3197 9.20571 11.2268 8.9753C11.1339 8.74488 11.1295 8.48825 11.2144 8.25478C11.2943 8.03959 11.3599 7.81935 11.4107 7.5955C11.4359 7.48479 11.456 7.36904 11.4711 7.25328C11.5322 6.8988 11.7179 6.57778 11.9947 6.34803C12.2715 6.11829 12.6212 5.99493 12.9809 6.00016H14.4907C14.7076 5.99812 14.9224 6.04284 15.1204 6.13128C15.3185 6.21971 15.4951 6.34977 15.6384 6.51262C15.7817 6.67547 15.8882 6.86728 15.9507 7.07499C16.0131 7.28269 16.0301 7.50142 16.0005 7.71629C15.7324 9.82465 14.7695 11.7836 13.2639 13.2837C11.7583 14.7838 9.79589 15.7396 7.68656 16H7.49533C7.12421 16.0005 6.7659 15.8644 6.4888 15.6175C6.32959 15.4751 6.2024 15.3006 6.11565 15.1054C6.02889 14.9102 5.98455 14.6988 5.98554 14.4852V12.9754C5.9917 12.6258 6.119 12.2892 6.3457 12.023C6.5724 11.7569 6.88446 11.5776 7.2286 11.5159ZM6.97696 14.5355C6.97705 14.607 6.99236 14.6776 7.02186 14.7427C7.05137 14.8077 7.09439 14.8658 7.14807 14.9129C7.20431 14.9615 7.27006 14.9978 7.34113 15.0194C7.41219 15.0411 7.48699 15.0477 7.56075 15.0388C9.44552 14.7971 11.1962 13.9349 12.5367 12.588C13.8771 11.2412 14.731 9.48643 14.9638 7.60054C14.9718 7.52682 14.9647 7.45224 14.9431 7.38131C14.9215 7.31038 14.8857 7.24457 14.8379 7.18786C14.7908 7.13418 14.7327 7.09115 14.6676 7.06165C14.6026 7.03215 14.5319 7.01684 14.4605 7.01675H12.9507C12.8337 7.01415 12.7194 7.05242 12.6275 7.12499C12.5357 7.19755 12.472 7.29987 12.4474 7.41433C12.4273 7.55189 12.4021 7.68777 12.3719 7.82197C12.3138 8.08726 12.2364 8.34797 12.1404 8.60203L12.845 8.92915C12.9053 8.95679 12.9594 8.99606 13.0045 9.0447C13.0495 9.09334 13.0845 9.15039 13.1074 9.21259C13.1303 9.27478 13.1407 9.34089 13.138 9.40711C13.1353 9.47334 13.1195 9.53837 13.0916 9.59849C12.3673 11.1499 11.1202 12.397 9.56877 13.1213C9.44624 13.1717 9.30881 13.1717 9.18629 13.1213C9.12353 13.0989 9.06585 13.0642 9.0166 13.0193C8.96736 12.9743 8.92753 12.9201 8.89943 12.8596L8.58741 12.1551C8.32724 12.2481 8.0617 12.3254 7.79225 12.3866C7.65805 12.4168 7.52217 12.4419 7.38461 12.4621C7.27015 12.4866 7.16783 12.5503 7.09527 12.6422C7.0227 12.734 6.98443 12.8483 6.98703 12.9653L6.97696 14.5355Z" fill="#E98A31"/>
</svg>
