<svg width="101" height="100" viewBox="0 0 101 100" fill="none" xmlns="http://www.w3.org/2000/svg">
<path d="M70.6199 32.7369L60.5877 28.908L56.7588 38.9402L66.791 42.7691L70.6199 32.7369Z" fill="#F9810D"/>
<path opacity="0.5" d="M80.652 36.5649L70.6199 32.736L66.791 42.7682L76.8231 46.5971L80.652 36.5649Z" fill="#F9810D" fill-opacity="0.84"/>
<path opacity="0.5" d="M76.822 46.5968L66.7898 42.7679L62.9609 52.8L72.9931 56.6289L76.822 46.5968Z" fill="#F9810D" fill-opacity="0.84"/>
<path opacity="0.5" d="M66.7901 42.7682L56.7579 38.9393L52.929 48.9714L62.9612 52.8003L66.7901 42.7682Z" fill="#F9810D" fill-opacity="0.84"/>
<path opacity="0.2" d="M62.9621 52.801L52.93 48.9721L49.1011 59.0043L59.1332 62.8332L62.9621 52.801Z" fill="#F9810D" fill-opacity="0.97"/>
<path opacity="0.2" d="M90.6839 40.3951L80.6518 36.5662L76.8229 46.5983L86.855 50.4272L90.6839 40.3951Z" fill="#F9810D" fill-opacity="0.97"/>
<path d="M41.9241 47.8556L11.6095 62.3516C10.4411 62.9102 9.95128 64.3008 10.5157 65.4576L23.7991 92.6852C24.3633 93.8418 25.7679 94.3266 26.9363 93.768L50.7071 82.4012M41.9241 47.8556L29.3367 22.8516C28.7581 21.702 29.2303 20.3054 30.3915 19.7324L57.7265 6.24478C58.8877 5.6717 60.2983 6.13918 60.8771 7.28898L74.3298 34.0122M41.9241 47.8556L48.1409 60.2048M50.7071 82.4012L72.007 90.198C73.224 90.6434 74.5752 90.0278 75.0252 88.823L92.1348 43.0096C92.5848 41.8046 91.963 40.4668 90.746 40.0214L74.3298 34.0122M50.7071 82.4012L43.3607 79.712C42.1437 79.2664 41.5219 77.9286 41.9717 76.7238L48.1409 60.2048M74.3298 34.0122L62.0996 29.5354C60.8826 29.0898 59.5313 29.7054 59.0813 30.9102L55.1073 41.5516L48.1409 60.2048" stroke="#3E3766" stroke-width="3"/>
</svg>
