<svg width="101" height="100" viewBox="0 0 101 100" fill="none" xmlns="http://www.w3.org/2000/svg">
<path d="M95.2191 42.0882H79.6015H62.2632H44.9103H27.5573H20.3662L27.2338 40.0441L43.822 35.1176C43.8662 35.1176 43.9103 35.1029 43.9397 35.0882L60.4985 30.1765L77.1162 25.25C77.1309 25.2353 77.1309 25.25 77.1309 25.25L92.1309 20.7941C92.8956 20.5588 93.3515 19.75 93.1162 18.9706L88.7044 4.10293C88.6897 4.05881 88.6897 4.0294 88.675 3.98528C88.6015 3.74999 88.4691 3.5294 88.2926 3.36763C88.2044 3.26469 88.0868 3.19116 87.9691 3.11763C87.7485 2.99999 87.4985 2.94116 87.2632 2.94116C87.1309 2.94116 87.0132 2.95587 86.8956 2.99999C86.8809 2.99999 86.8809 2.99999 86.8662 2.99999H86.8515L70.2632 7.92646L53.675 12.8529H53.6603C53.6309 12.8676 53.6015 12.8676 53.5721 12.8823C53.5573 12.8823 53.5573 12.8823 53.5573 12.8823L36.9985 17.7941C36.9985 17.7941 36.9838 17.7941 36.9691 17.7941L20.3956 22.7206C20.3662 22.7206 20.3368 22.7353 20.3221 22.7353L5.36617 27.1765C4.98382 27.2941 4.67499 27.5441 4.48382 27.8823C4.30735 28.2353 4.26323 28.6323 4.36617 29L8.74852 43.7794V59.1617V95.5882C8.74852 96.4118 9.41029 97.0588 10.2191 97.0588H95.2191C96.0279 97.0588 96.6897 96.4118 96.6897 95.5882V59.1765V43.5588C96.6897 42.7353 96.0279 42.0882 95.2191 42.0882ZM78.9985 45.0294L91.6603 57.6912H78.4691L65.8073 45.0294H78.9985ZM43.7779 57.6912L31.1162 45.0294H44.3073L56.9691 57.6912H43.7779ZM11.6897 47.1029L22.2779 57.6912H11.6897V47.1029ZM75.7338 22.5882H75.7191L63.1015 26.3382L71.6309 10.5882L84.2779 6.83822L75.7338 22.5882ZM42.4838 32.4559H42.4691L29.8368 36.2059L38.3809 20.4412L51.0279 16.7059L42.4838 32.4559ZM7.60146 29.5735L17.7632 26.5588L10.6309 39.7206L7.60146 29.5735ZM11.6897 94.1176V60.6323H93.7485V94.1176H11.6897Z" fill="#3E3766"/>
<path d="M72.6662 71.572H35.3485C34.5353 71.572 33.8779 72.2294 33.8779 73.0426C33.8779 73.8558 34.5353 74.5132 35.3485 74.5132H72.6662C73.4794 74.5132 74.1368 73.8558 74.1368 73.0426C74.1368 72.2294 73.4794 71.572 72.6662 71.572ZM64.8853 80.2456H43.1294C42.3162 80.2456 41.6588 80.9029 41.6588 81.7161C41.6588 82.5294 42.3162 83.1867 43.1294 83.1867H64.8853C65.6985 83.1867 66.3559 82.5294 66.3559 81.7161C66.3559 80.9029 65.6985 80.2456 64.8853 80.2456Z" fill="#F9810D"/>
</svg>
