<svg width="101" height="100" viewBox="0 0 101 100" fill="none" xmlns="http://www.w3.org/2000/svg">
<g clip-path="url(#clip0_62_16249)">
<path d="M12.3153 77.407C10.2155 77.407 8.64792 79.0717 8.35245 81.1016H8.13141V86.411H40.0352C40.3343 86.411 40.6211 86.2921 40.8326 86.0806C41.0441 85.8691 41.1629 85.5824 41.1629 85.2833C41.1629 84.9842 41.0441 84.6971 40.8326 84.4857C40.6211 84.2742 40.3343 84.1555 40.0352 84.1555H10.3846V83.3571H10.4027L10.3891 82.2181C10.3869 82.0579 10.3846 82.0803 10.3846 82.1773V81.6429C10.3846 80.5152 11.235 79.6603 12.3131 79.6603H40.0329C40.332 79.6603 40.6189 79.5414 40.8304 79.3299C41.0419 79.1184 41.1607 78.8316 41.1607 78.5325C41.1607 78.2334 41.0419 77.9467 40.8304 77.7352C40.6189 77.5237 40.332 77.4048 40.0329 77.4048H12.3131L12.3153 77.407ZM20.5366 36.8376C18.6826 36.8376 17.1533 38.3669 17.1533 40.2209C17.1533 42.0771 18.6826 43.6041 20.5366 43.6041H31.814C33.668 43.6041 35.1972 42.0771 35.1972 40.2209C35.1972 38.3669 33.668 36.8376 31.814 36.8376H20.5366ZM20.5366 39.0931H31.814C32.459 39.0931 32.9417 39.5781 32.9417 40.2209C32.9417 40.8659 32.459 41.3486 31.814 41.3486H20.5366C20.3875 41.3523 20.2391 41.3256 20.1006 41.2703C19.9621 41.2149 19.8363 41.1321 19.7309 41.0266C19.6254 40.9211 19.5425 40.7954 19.4871 40.6568C19.4317 40.5183 19.4051 40.37 19.4088 40.2209C19.4088 39.5781 19.8915 39.0931 20.5366 39.0931Z" fill="#3E3766"/>
<path d="M17.1513 70.636C14.6748 70.636 12.6403 72.666 12.6403 75.147C12.6403 77.628 14.6748 79.6579 17.1513 79.6579H35.1951C35.6417 79.6579 36.0748 79.5992 36.492 79.4729L35.8447 77.3078C35.6346 77.3703 35.4166 77.4022 35.1974 77.4025H17.1535C15.8837 77.4025 14.8981 76.4146 14.8981 75.147C14.8981 73.8772 15.8837 72.8915 17.1535 72.8915H35.1974C35.3846 72.8915 35.5628 72.9139 35.7342 72.9568L36.271 70.769C35.9198 70.6815 35.5594 70.6359 35.1974 70.6335H17.1535L17.1513 70.636Z" fill="#3E3766"/>
<path d="M21.4209 41.3486C21.2717 41.3486 21.1239 41.3783 20.9862 41.4358C20.8485 41.4933 20.7236 41.5776 20.6187 41.6837C20.5138 41.7899 20.431 41.9158 20.3751 42.0542C20.3192 42.1926 20.2914 42.3406 20.2932 42.4899C20.336 46.0039 20.3902 47.355 20.1962 50.5172C20.1873 50.6651 20.2076 50.8133 20.256 50.9534C20.3045 51.0935 20.38 51.2228 20.4783 51.3337C20.5766 51.4446 20.6959 51.5349 20.8291 51.5998C20.9624 51.6646 21.1072 51.7025 21.2551 51.7114C21.4031 51.7203 21.5513 51.7001 21.6914 51.6517C21.8315 51.6033 21.9607 51.5277 22.0716 51.4293C22.1825 51.331 22.2729 51.2117 22.3378 51.0784C22.4026 50.9451 22.4405 50.8004 22.4494 50.6525C22.6163 47.8783 22.5712 46.1912 22.5374 43.6041H29.897C29.8519 53.6185 30.7586 62.2682 32.8088 70.5029H19.5466C20.539 66.5288 21.3555 62.5095 21.8359 58.2422C21.8691 57.9449 21.7829 57.6466 21.5961 57.4129C21.5036 57.2972 21.3893 57.2008 21.2596 57.1293C21.1299 57.0578 20.9873 57.0125 20.8401 56.996C20.5428 56.9628 20.2445 57.0491 20.0108 57.2359C19.7771 57.4226 19.6272 57.6946 19.594 57.9919C19.0978 62.4971 18.2654 66.9589 17.1039 71.3399C17.0593 71.5069 17.0537 71.6819 17.0875 71.8515C17.1214 72.021 17.1937 72.1805 17.299 72.3176C17.4043 72.4547 17.5397 72.5658 17.6948 72.6422C17.8499 72.7187 18.0204 72.7584 18.1933 72.7584H34.1576C34.3306 72.7581 34.5011 72.7181 34.6561 72.6414C34.8111 72.5647 34.9464 72.4533 35.0515 72.3159C35.1566 72.1786 35.2286 72.0189 35.2622 71.8493C35.2957 71.6796 35.2897 71.5044 35.2448 71.3374C32.9148 62.5907 31.9743 53.447 32.1051 42.4899C32.1069 42.3406 32.0791 42.1926 32.0232 42.0542C31.9673 41.9158 31.8845 41.7899 31.7796 41.6837C31.6747 41.5776 31.5498 41.4933 31.4121 41.4358C31.2744 41.3783 31.1266 41.3486 30.9774 41.3486H21.4209ZM21.0036 53.5485C20.7245 53.5591 20.4592 53.673 20.2592 53.868C20.0592 54.0631 19.9387 54.3253 19.921 54.6041C19.9142 54.6949 19.9112 54.7859 19.912 54.877C19.912 54.8995 19.912 54.8161 19.9075 54.8996C19.8902 55.0496 19.9032 55.2016 19.9458 55.3464C19.9884 55.4913 20.0596 55.6261 20.1552 55.7429C20.2509 55.8597 20.369 55.9562 20.5026 56.0265C20.6362 56.0968 20.7826 56.1396 20.933 56.1523C21.0835 56.165 21.235 56.1474 21.3785 56.1004C21.522 56.0535 21.6546 55.9782 21.7685 55.879C21.8823 55.7799 21.9751 55.6589 22.0413 55.5232C22.1075 55.3875 22.1458 55.2398 22.1539 55.089C22.1621 54.9952 22.1666 54.9012 22.1675 54.8071C22.1675 54.7777 22.1607 54.8613 22.1675 54.7846C22.1823 54.6249 22.163 54.4639 22.1107 54.3123C22.0584 54.1607 21.9744 54.022 21.8642 53.9055C21.7541 53.7889 21.6203 53.6973 21.4719 53.6365C21.3235 53.5757 21.1639 53.5473 21.0036 53.5531V53.5485ZM26.1755 25.5175C22.4517 25.5175 19.409 28.5601 19.409 32.2839C19.409 36.0054 22.4517 39.0503 26.1755 39.0503C29.897 39.0503 32.9419 36.0054 32.9419 32.2839C32.9419 28.5601 29.897 25.5175 26.1755 25.5175ZM26.1755 27.7729C28.679 27.7729 30.6864 29.7803 30.6864 32.2839C30.6864 34.7875 28.679 36.7949 26.1755 36.7949C23.6719 36.7949 21.6645 34.7875 21.6645 32.2839C21.6645 29.7803 23.6719 27.7729 26.1755 27.7729ZM57.5131 77.407C57.214 77.407 56.9272 77.5259 56.7157 77.7374C56.5042 77.9489 56.3854 78.2357 56.3854 78.5348C56.3854 78.8339 56.5042 79.1206 56.7157 79.3321C56.9272 79.5436 57.214 79.6625 57.5131 79.6625H85.2353C86.3156 79.6625 87.1614 80.5151 87.1614 81.6451V82.1773C87.1614 82.0398 87.1592 82.0736 87.1569 82.2134L87.1389 83.3593H87.1614V84.1556H57.5154C57.2163 84.1556 56.9294 84.2742 56.7179 84.4857C56.5065 84.6972 56.3876 84.9842 56.3876 85.2833C56.3876 85.5824 56.5065 85.8692 56.7179 86.0807C56.9294 86.2921 57.2163 86.4111 57.5154 86.4111H89.4169V81.1038H89.1959C88.8982 79.0739 87.3374 77.407 85.2353 77.407H57.5131ZM65.7344 36.8377C63.8803 36.8377 62.3511 38.3669 62.3511 40.2209C62.3511 42.0772 63.8803 43.6041 65.7344 43.6041H77.0118C78.8658 43.6041 80.395 42.0772 80.395 40.2209C80.395 38.3669 78.8658 36.8377 77.0118 36.8377H65.7344ZM65.7344 39.0932H77.0118C77.6568 39.0932 78.1395 39.5781 78.1395 40.2209C78.1395 40.866 77.6568 41.3486 77.0118 41.3486H65.7344C65.5852 41.3524 65.4369 41.3257 65.2984 41.2703C65.1599 41.2149 65.0341 41.1321 64.9287 41.0266C64.8232 40.9212 64.7403 40.7954 64.6849 40.6569C64.6295 40.5184 64.6029 40.37 64.6066 40.2209C64.6066 39.5781 65.0893 39.0932 65.7344 39.0932Z" fill="#3E3766"/>
<path d="M62.3509 70.6404V72.8959H80.3947C81.6646 72.8959 82.6502 73.8816 82.6502 75.1514C82.6502 76.419 81.6646 77.4069 80.3947 77.4069H62.3509V79.6624H80.3947C82.8758 79.6624 84.9057 77.6324 84.9057 75.1514C84.9057 72.6704 82.8758 70.6404 80.3947 70.6404H62.3509Z" fill="#3E3766"/>
<path d="M66.571 41.3486C66.4218 41.3486 66.274 41.3783 66.1363 41.4358C65.9986 41.4933 65.8737 41.5776 65.7688 41.6837C65.6639 41.7899 65.5811 41.9158 65.5252 42.0542C65.4694 42.1926 65.4415 42.3406 65.4433 42.4899C65.5719 53.447 64.6336 62.5909 62.3014 71.3399C62.2564 71.5071 62.2505 71.6822 62.2841 71.852C62.3178 72.0219 62.39 72.1818 62.4954 72.3192C62.6007 72.4566 62.7363 72.5678 62.8916 72.6444C63.0468 72.721 63.2177 72.7609 63.3908 72.7609H79.3551C79.5281 72.7606 79.6986 72.7203 79.8536 72.6436C80.0086 72.5669 80.1439 72.4555 80.249 72.3181C80.3541 72.1808 80.4261 72.0211 80.4597 71.8515C80.4932 71.6818 80.4872 71.5069 80.4423 71.3399C79.2815 66.9588 78.4499 62.497 77.9545 57.9919C77.9379 57.8447 77.8924 57.7021 77.8208 57.5724C77.7491 57.4428 77.6526 57.3285 77.5368 57.2361C77.421 57.1438 77.2881 57.0752 77.1458 57.0342C77.0034 56.9932 76.8544 56.9806 76.7072 56.9971C76.56 57.0137 76.4175 57.0592 76.2878 57.1308C76.1582 57.2025 76.0439 57.299 75.9515 57.4148C75.8592 57.5306 75.7905 57.6636 75.7495 57.8059C75.7085 57.9483 75.6959 58.0973 75.7125 58.2445C76.1929 62.5096 77.0117 66.531 78.0018 70.5029H64.7396C66.7898 62.2704 67.6965 53.6185 67.6492 43.6041H75.0111C74.9772 46.1912 74.9299 47.8783 75.1013 50.6525C75.103 50.8052 75.1357 50.9561 75.1974 51.0958C75.2592 51.2355 75.3487 51.3612 75.4604 51.4653C75.5722 51.5694 75.704 51.6496 75.8477 51.7012C75.9915 51.7529 76.1442 51.7748 76.2967 51.7656C76.4492 51.7565 76.5982 51.7163 76.7347 51.6478C76.8712 51.5793 76.9924 51.4839 77.0909 51.3671C77.1894 51.2504 77.2631 51.1148 77.3077 50.9687C77.3522 50.8226 77.3666 50.669 77.35 50.5172C77.1583 47.3572 77.2124 46.0063 77.253 42.4922C77.2548 42.343 77.227 42.1949 77.1711 42.0565C77.1152 41.9181 77.0324 41.7922 76.9275 41.6861C76.8226 41.5799 76.6977 41.4955 76.56 41.438C76.4223 41.3805 76.2745 41.3508 76.1253 41.3508L66.571 41.3486ZM76.5087 53.5485C76.3514 53.5479 76.1958 53.5801 76.0517 53.6431C75.9077 53.7062 75.7784 53.7987 75.6722 53.9147C75.566 54.0307 75.4852 54.1675 75.4351 54.3166C75.3849 54.4656 75.3665 54.6235 75.381 54.7801C75.3877 54.8522 75.381 54.7575 75.381 54.8026C75.381 54.832 75.3855 54.965 75.3945 55.0846C75.4026 55.2354 75.4409 55.3829 75.5071 55.5186C75.5733 55.6543 75.6661 55.7753 75.78 55.8745C75.8938 55.9737 76.0264 56.0489 76.1699 56.0959C76.3134 56.1428 76.4649 56.1604 76.6154 56.1478C76.7658 56.1351 76.9122 56.0924 77.0458 56.0221C77.1794 55.9518 77.2976 55.8553 77.3932 55.7385C77.4889 55.6217 77.5601 55.4867 77.6026 55.3419C77.6452 55.197 77.6582 55.045 77.6409 54.895C77.6342 54.8206 77.6364 54.8951 77.6364 54.8726C77.6364 54.85 77.6364 54.7213 77.6274 54.6018C77.6103 54.3161 77.4851 54.0477 77.2774 53.8508C77.0697 53.654 76.7949 53.5436 76.5087 53.5418V53.5485ZM71.373 25.5175C67.6492 25.5175 64.6065 28.5601 64.6065 32.2839C64.6065 36.0054 67.6492 39.0503 71.373 39.0503C75.0945 39.0503 78.1394 36.0054 78.1394 32.2839C78.1394 28.5601 75.0945 25.5175 71.373 25.5175ZM71.373 27.7729C73.8765 27.7729 75.8839 29.7803 75.8839 32.2839C75.8839 34.7875 73.8765 36.7949 71.373 36.7949C68.8694 36.7949 66.862 34.7875 66.862 32.2839C66.862 29.7803 68.8694 27.7729 71.373 27.7729ZM42.8321 34.7987C42.684 34.7993 42.5375 34.8291 42.4009 34.8863C42.2643 34.9435 42.1403 35.027 42.036 35.1322C41.9317 35.2373 41.8491 35.362 41.793 35.499C41.7369 35.6361 41.7083 35.7829 41.7089 35.931C41.6817 39.1859 41.5666 42.4395 41.3638 45.6882C41.3536 45.8365 41.3729 45.9852 41.4205 46.126C41.468 46.2668 41.5429 46.3968 41.6409 46.5085C41.7388 46.6203 41.8579 46.7116 41.9912 46.7771C42.1246 46.8427 42.2696 46.8812 42.4178 46.8906C42.5661 46.8999 42.7148 46.8799 42.8554 46.8316C42.9959 46.7834 43.1255 46.7077 43.2367 46.6092C43.3479 46.5107 43.4386 46.3911 43.5035 46.2575C43.5683 46.1238 43.6062 45.9786 43.6148 45.8303C43.8177 42.6365 43.9305 39.3571 43.9643 35.9536C43.968 35.8029 43.9413 35.6529 43.886 35.5127C43.8307 35.3724 43.7478 35.2446 43.6422 35.137C43.5366 35.0293 43.4105 34.9438 43.2714 34.8857C43.1323 34.8277 42.9829 34.7981 42.8321 34.7987ZM56.3064 34.8213C56.008 34.8296 55.7251 34.9558 55.5197 35.1722C55.3142 35.3887 55.2029 35.6777 55.2102 35.976C55.35 49.3195 56.8048 60.8901 59.8226 72.0142C59.8582 72.1604 59.9227 72.298 60.0123 72.4189C60.1019 72.5399 60.2148 72.6419 60.3444 72.7185C60.474 72.7951 60.6176 72.845 60.7667 72.8652C60.9159 72.8855 61.0676 72.8756 61.2129 72.8363C61.3582 72.797 61.4941 72.7291 61.6128 72.6364C61.7314 72.5438 61.8302 72.4282 61.9035 72.2967C61.9768 72.1652 62.023 72.0204 62.0394 71.8707C62.0559 71.7211 62.0422 71.5698 61.9992 71.4255C59.0355 60.5045 57.601 49.1482 57.4657 35.9536C57.4663 35.8024 57.4366 35.6527 57.3782 35.5132C57.3199 35.3738 57.234 35.2474 57.1259 35.1418C57.0177 35.0362 56.8895 34.9533 56.7487 34.8983C56.6079 34.8432 56.4575 34.8171 56.3064 34.8213ZM42.2231 48.2978C41.944 48.3023 41.6765 48.4102 41.4723 48.6006C41.2682 48.791 41.1419 49.0505 41.1179 49.3286C41.0503 50.0052 40.8022 52.2945 40.7255 52.9801C40.6992 53.1317 40.7042 53.2871 40.7402 53.4366C40.7762 53.5861 40.8424 53.7267 40.9347 53.8497C41.0271 53.9727 41.1436 54.0756 41.2771 54.1519C41.4107 54.2282 41.5584 54.2763 41.7113 54.2934C41.8641 54.3105 42.0188 54.2962 42.1659 54.2513C42.3131 54.2064 42.4494 54.1318 42.5667 54.0323C42.6839 53.9327 42.7795 53.8103 42.8477 53.6724C42.9158 53.5345 42.955 53.3841 42.9629 53.2305C43.0419 52.5268 43.2922 50.2826 43.3644 49.5541C43.3827 49.3944 43.3668 49.2327 43.3175 49.0797C43.2682 48.9267 43.1868 48.7859 43.0788 48.667C42.9707 48.548 42.8384 48.4535 42.6909 48.3899C42.5433 48.3262 42.3838 48.2948 42.2231 48.2978ZM41.2668 56.6746C40.9876 56.666 40.7151 56.7615 40.5021 56.9424C40.2892 57.1232 40.151 57.3766 40.1142 57.6535C39.4284 62.2964 38.4704 66.895 37.2453 71.4255C37.2023 71.5698 37.1886 71.7211 37.205 71.8707C37.2214 72.0204 37.2677 72.1652 37.3409 72.2967C37.4142 72.4282 37.5131 72.5438 37.6317 72.6364C37.7503 72.7291 37.8863 72.797 38.0316 72.8363C38.1769 72.8756 38.3286 72.8855 38.4777 72.8652C38.6269 72.845 38.7705 72.7951 38.9 72.7185C39.0296 72.6419 39.1425 72.5399 39.2321 72.4189C39.3217 72.298 39.3862 72.1604 39.4218 72.0142C40.6706 67.3991 41.6474 62.7146 42.3472 57.985C42.3729 57.8265 42.3645 57.6643 42.3225 57.5093C42.2805 57.3542 42.2059 57.2099 42.1036 57.0861C42.0013 56.9622 41.8737 56.8616 41.7294 56.7911C41.5851 56.7205 41.4274 56.6816 41.2668 56.6769V56.6746ZM32.9373 77.4365C30.6187 77.4365 28.7511 79.0264 28.3993 81.1352H28.1399V86.4424H70.994V81.133H70.7392C70.3873 79.0264 68.5198 77.4365 66.2011 77.4365H32.9373ZM32.9373 79.692H66.2011C67.7213 79.692 68.7386 80.6641 68.7386 81.6768V82.209C68.7386 82.0556 68.7386 82.094 68.7341 82.2451L68.716 83.3907H68.7386V84.187H30.3954V83.3907H30.3999V82.263C30.3999 82.0577 30.3954 82.0826 30.3954 82.2112V81.6768C30.3954 80.6663 31.4171 79.692 32.9373 79.692Z" fill="#3E3766"/>
<path d="M40.545 30.0711C38.691 30.0711 37.1618 31.6003 37.1618 33.4543C37.1618 35.3105 38.691 36.8375 40.545 36.8375H58.5889C60.4429 36.8375 61.9721 35.3105 61.9721 33.4543C61.9721 31.6003 60.4429 30.0711 58.5889 30.0711H40.545ZM40.545 32.3265H58.5889C59.2339 32.3265 59.7166 32.8115 59.7166 33.4543C59.7166 34.0994 59.2339 34.582 58.5889 34.582H40.545C40.3959 34.5857 40.2476 34.5591 40.1091 34.5037C39.9706 34.4483 39.8448 34.3655 39.7393 34.26C39.6339 34.1546 39.5509 34.0288 39.4956 33.8903C39.4402 33.7518 39.4136 33.6034 39.4173 33.4543C39.4173 32.8115 39.9 32.3265 40.545 32.3265ZM49.7519 13.1391C49.4532 13.1439 49.1686 13.267 48.9605 13.4814C48.7525 13.6958 48.638 13.984 48.6422 14.2827V21.0807C48.6422 21.3798 48.761 21.6667 48.9725 21.8781C49.184 22.0896 49.4708 22.2084 49.7699 22.2084C50.069 22.2084 50.3559 22.0896 50.5674 21.8781C50.7789 21.6667 50.8977 21.3798 50.8977 21.0807V14.2827C50.8998 14.1317 50.8716 13.9819 50.8148 13.842C50.7579 13.7022 50.6736 13.5752 50.5667 13.4686C50.4599 13.3619 50.3327 13.2777 50.1927 13.2212C50.0527 13.1646 49.9028 13.1367 49.7519 13.1391Z" fill="#3E3766"/>
<path d="M46.2761 16.5903C46.128 16.5975 45.9828 16.6339 45.8487 16.6972C45.7147 16.7606 45.5944 16.8498 45.4948 16.9596C45.3952 17.0695 45.3182 17.1979 45.2683 17.3375C45.2183 17.4771 45.1963 17.6251 45.2036 17.7732C45.2108 17.9213 45.2472 18.0666 45.3106 18.2007C45.374 18.3347 45.4631 18.4549 45.573 18.5545C45.6828 18.6541 45.8112 18.7311 45.9508 18.7811C46.0904 18.831 46.2385 18.853 46.3866 18.8458H53.153C53.4521 18.8458 53.739 18.727 53.9505 18.5155C54.162 18.304 54.2808 18.0171 54.2808 17.718C54.2808 17.4189 54.162 17.132 53.9505 16.9205C53.739 16.709 53.4521 16.5903 53.153 16.5903H46.3866C46.3498 16.5885 46.3129 16.5885 46.2761 16.5903ZM37.4301 70.6701C34.949 70.6701 32.9191 72.7023 32.9191 75.181C32.9191 77.6621 34.949 79.692 37.4301 79.692H61.8614C64.3425 79.692 66.3724 77.6621 66.3724 75.181C66.3724 72.7023 64.3425 70.6701 61.8614 70.6701H56.8475C56.5484 70.6701 56.2616 70.7887 56.0501 71.0002C55.8386 71.2117 55.7198 71.4987 55.7198 71.7978C55.7198 72.0969 55.8386 72.3837 56.0501 72.5952C56.2616 72.8067 56.5484 72.9256 56.8475 72.9256H61.8637C63.1335 72.9256 64.1192 73.9135 64.1192 75.181C64.1192 76.4509 63.1335 77.4365 61.8637 77.4365H37.4301C36.1602 77.4365 35.1746 76.4509 35.1746 75.181C35.1746 73.9135 36.1602 72.9256 37.4301 72.9256H48.5451C48.8442 72.9256 49.131 72.8067 49.3425 72.5952C49.554 72.3837 49.6728 72.0969 49.6728 71.7978C49.6728 71.4987 49.554 71.2117 49.3425 71.0002C49.131 70.7887 48.8442 70.6701 48.5451 70.6701H37.4301ZM51.9554 70.6701C51.6563 70.685 51.3754 70.818 51.1744 71.0401C50.9735 71.2622 50.8691 71.5549 50.884 71.854C50.899 72.1531 51.0321 72.4342 51.2542 72.6351C51.4763 72.836 51.769 72.9405 52.0681 72.9256H53.2004C53.4995 72.9256 53.7863 72.8067 53.9978 72.5952C54.2093 72.3837 54.3281 72.0969 54.3281 71.7978C54.3281 71.4987 54.2093 71.2117 53.9978 71.0002C53.7863 70.7887 53.4995 70.6701 53.2004 70.6701H52.0681C52.0306 70.6682 51.9929 70.6682 51.9554 70.6701ZM49.8036 20.3367C49.6593 20.3435 49.5177 20.3779 49.3864 20.4381L40.3645 24.5657C40.0935 24.6896 39.8825 24.9156 39.7777 25.1945C39.6729 25.4735 39.6828 25.7826 39.8051 26.0542L42.1733 31.3637C42.2338 31.4992 42.3203 31.6214 42.428 31.7235C42.5357 31.8256 42.6624 31.9054 42.8009 31.9585C42.9395 32.0116 43.0871 32.0369 43.2354 32.033C43.3838 32.029 43.5298 31.9958 43.6653 31.9354C43.8009 31.875 43.9231 31.7885 44.0252 31.6808C44.1273 31.5732 44.2071 31.4465 44.2602 31.3079C44.3133 31.1694 44.3386 31.0216 44.3346 30.8733C44.3307 30.725 44.2975 30.5789 44.2371 30.4434L42.32 26.1513L49.8397 22.7116L56.0694 25.7678L56.8001 26.1287L56.3558 27.1346L54.8266 30.5878C54.7602 30.7241 54.7219 30.8725 54.7141 31.0239C54.7063 31.1753 54.7291 31.3267 54.7812 31.4691C54.8333 31.6115 54.9136 31.742 55.0172 31.8526C55.1208 31.9633 55.2458 32.0519 55.3844 32.1132C55.5231 32.1745 55.6728 32.2073 55.8244 32.2095C55.976 32.2116 56.1265 32.1831 56.2669 32.1258C56.4072 32.0684 56.5346 31.9833 56.6413 31.8756C56.7481 31.7679 56.832 31.6399 56.8881 31.499L58.4173 28.0482L59.1165 26.4602L59.297 26.0497C59.4156 25.7833 59.4264 25.4814 59.3271 25.2072C59.2279 24.933 59.0263 24.7079 58.7647 24.5792L57.064 23.7447L50.3517 20.4516C50.1816 20.3678 49.9931 20.3283 49.8036 20.3367ZM5.46087 84.2118C5.16178 84.2118 4.87493 84.3307 4.66344 84.5422C4.45195 84.7537 4.33313 85.0404 4.33313 85.3395C4.33313 85.6386 4.45195 85.9257 4.66344 86.1371C4.87493 86.3486 5.16178 86.4673 5.46087 86.4673H95.2674C95.5665 86.4673 95.8533 86.3486 96.0648 86.1371C96.2763 85.9257 96.3951 85.6386 96.3951 85.3395C96.3951 85.0404 96.2763 84.7537 96.0648 84.5422C95.8533 84.3307 95.5665 84.2118 95.2674 84.2118H5.46087Z" fill="#3E3766"/>
<path fill-rule="evenodd" clip-rule="evenodd" d="M25.8981 88.7226C25.599 88.7226 25.3122 88.8415 25.1007 89.053C24.8892 89.2645 24.7704 89.5512 24.7704 89.8503C24.7704 90.1494 24.8892 90.4365 25.1007 90.648C25.3122 90.8595 25.599 90.9781 25.8981 90.9781H70.4078C70.7069 90.9781 70.9937 90.8595 71.2052 90.648C71.4167 90.4365 71.5355 90.1494 71.5355 89.8503C71.5355 89.5512 71.4167 89.2645 71.2052 89.053C70.9937 88.8415 70.7069 88.7226 70.4078 88.7226H25.8981ZM32.642 93.2336C32.3429 93.2336 32.0561 93.3525 31.8446 93.564C31.6331 93.7754 31.5143 94.0622 31.5143 94.3613C31.5143 94.6604 31.6331 94.9474 31.8446 95.1589C32.0561 95.3704 32.3429 95.489 32.642 95.489H44.5104C44.8095 95.489 45.0963 95.3704 45.3078 95.1589C45.5193 94.9474 45.6381 94.6604 45.6381 94.3613C45.6381 94.0622 45.5193 93.7754 45.3078 93.564C45.0963 93.3525 44.8095 93.2336 44.5104 93.2336H32.642ZM50.7084 93.2336C50.4093 93.2336 50.1225 93.3525 49.911 93.564C49.6995 93.7754 49.5807 94.0622 49.5807 94.3613C49.5807 94.6604 49.6995 94.9474 49.911 95.1589C50.1225 95.3704 50.4093 95.489 50.7084 95.489H66.6321C66.9312 95.489 67.2181 95.3704 67.4296 95.1589C67.6411 94.9474 67.7599 94.6604 67.7599 94.3613C67.7599 94.0622 67.6411 93.7754 67.4296 93.564C67.2181 93.3525 66.9312 93.2336 66.6321 93.2336H50.7084ZM39.431 97.7445C39.1319 97.7445 38.8451 97.8634 38.6336 98.0749C38.4221 98.2864 38.3033 98.5732 38.3033 98.8723C38.3033 99.1714 38.4221 99.4584 38.6336 99.6699C38.8451 99.8814 39.1319 100 39.431 100H50.9678C51.2669 100 51.5537 99.8814 51.7652 99.6699C51.9767 99.4584 52.0955 99.1714 52.0955 98.8723C52.0955 98.5732 51.9767 98.2864 51.7652 98.0749C51.5537 97.8634 51.2669 97.7445 50.9678 97.7445H39.431Z" fill="#F9810D"/>
<path fill-rule="evenodd" clip-rule="evenodd" d="M6.62701 39.3142C6.49976 39.3157 6.37406 39.3424 6.25718 39.3927C6.1403 39.443 6.03455 39.516 5.94605 39.6075C5.85754 39.6989 5.78803 39.807 5.74155 39.9255C5.69506 40.0439 5.67251 40.1703 5.6752 40.2976C5.6752 40.9697 5.38875 41.272 4.72338 41.272C3.4152 41.2494 3.4152 43.2275 4.72338 43.2072C5.36394 43.2072 5.6752 43.3875 5.6752 44.1409C5.65715 45.449 7.62844 45.449 7.6104 44.1409C7.6104 43.4552 7.93068 43.2072 8.56672 43.2072C9.8749 43.2298 9.8749 41.2539 8.56672 41.272C7.70288 41.272 7.6104 40.7802 7.6104 40.2976C7.61222 40.1679 7.58803 40.0393 7.53925 39.9191C7.49048 39.799 7.41811 39.6898 7.32643 39.5981C7.23475 39.5064 7.12561 39.4342 7.00548 39.3854C6.88535 39.3366 6.75665 39.3124 6.62701 39.3142Z" fill="#F9810D"/>
<path fill-rule="evenodd" clip-rule="evenodd" d="M70.2385 2.5566C70.1686 2.55777 70.0996 2.57267 70.0355 2.60051C69.9714 2.62835 69.9133 2.6685 69.8647 2.71876C69.8162 2.76903 69.7779 2.82842 69.7523 2.89346C69.7266 2.9585 69.714 3.02799 69.7152 3.09789C69.7152 3.46328 69.5574 3.63244 69.192 3.63244C68.4725 3.63244 68.4725 4.70373 69.192 4.69245C69.5438 4.69245 69.7152 4.7895 69.7152 5.20676C69.704 5.924 70.7866 5.924 70.7753 5.20676C70.7753 4.83009 70.9535 4.69479 71.3008 4.69479C72.0203 4.69479 72.0203 3.62116 71.3008 3.63244C70.8272 3.63244 70.7776 3.3617 70.7776 3.09555C70.7785 3.02431 70.7651 2.95364 70.7382 2.88768C70.7113 2.82171 70.6714 2.76188 70.6209 2.71161C70.5704 2.66134 70.5104 2.62164 70.4443 2.595C70.3782 2.56837 70.3097 2.55538 70.2385 2.5566Z" fill="#3E3766"/>
<path fill-rule="evenodd" clip-rule="evenodd" d="M65.272 18.8909C65.1794 18.8915 65.0878 18.9105 65.0026 18.9467C64.9174 18.983 64.8403 19.0357 64.7757 19.102C64.711 19.1683 64.6602 19.2469 64.6262 19.333C64.5921 19.4191 64.5755 19.5111 64.5773 19.6036C64.5773 20.0931 64.3698 20.3141 63.8849 20.3141C62.9308 20.2916 62.9308 21.7395 63.8849 21.726C64.3517 21.726 64.5773 21.8546 64.5773 22.405C64.5638 23.359 66.0005 23.359 65.987 22.405C65.987 21.9042 66.2215 21.726 66.6862 21.726C67.638 21.7485 67.638 20.3006 66.6862 20.3141C66.0546 20.3141 65.987 19.9554 65.987 19.6058C65.9885 19.5114 65.971 19.4177 65.9357 19.3301C65.9003 19.2425 65.8477 19.1631 65.7811 19.0962C65.7144 19.0293 65.635 18.9764 65.5476 18.9408C65.4601 18.9051 65.3664 18.8874 65.272 18.8886V18.8909ZM94.4038 29.6766C94.1106 29.6766 93.876 29.9224 93.8805 30.2179C93.8805 30.5833 93.7226 30.7503 93.3572 30.7503C92.64 30.7503 92.64 31.8239 93.3572 31.8126C93.7091 31.8126 93.8805 31.9095 93.8805 32.3268C93.8692 33.044 94.9519 33.044 94.9406 32.3268C94.9406 31.9501 95.121 31.8126 95.4684 31.8126C96.1856 31.8126 96.1856 30.7412 95.4684 30.7525C94.9947 30.7525 94.9428 30.4819 94.9428 30.2157C94.9441 30.1443 94.9309 30.0732 94.9041 30.007C94.8774 29.9408 94.8375 29.8806 94.787 29.8301C94.7365 29.7796 94.6764 29.7399 94.6101 29.7131C94.5439 29.6863 94.473 29.6732 94.4015 29.6744L94.4038 29.6766Z" fill="#F9810D"/>
<path fill-rule="evenodd" clip-rule="evenodd" d="M85.2894 15.2234C85.1966 15.224 85.1049 15.2431 85.0195 15.2795C84.9341 15.3159 84.8569 15.3689 84.7922 15.4354C84.7276 15.502 84.6768 15.5808 84.6429 15.6671C84.609 15.7535 84.5926 15.8457 84.5947 15.9385C84.5947 16.4279 84.3872 16.649 83.9023 16.649C82.9482 16.6264 82.9482 18.0744 83.9023 18.0608C84.3691 18.0608 84.5947 18.1895 84.5947 18.7398C84.5812 19.6939 86.0179 19.6939 86.0044 18.7398C86.0044 18.2391 86.2389 18.0608 86.7036 18.0608C87.6554 18.0834 87.6554 16.6354 86.7036 16.649C86.072 16.649 86.0044 16.2903 86.0044 15.9407C86.0059 15.8463 85.9884 15.7525 85.9531 15.6649C85.9177 15.5774 85.8651 15.4979 85.7985 15.431C85.7318 15.3642 85.6524 15.3113 85.565 15.2756C85.4775 15.24 85.3838 15.2222 85.2894 15.2234Z" fill="#F9810D"/>
<path fill-rule="evenodd" clip-rule="evenodd" d="M38.3528 -0.944016C38.281 -0.943135 38.21 -0.928079 38.1439 -0.899689C38.0779 -0.871298 38.0181 -0.830236 37.968 -0.778682C37.918 -0.727128 37.8785 -0.666132 37.8521 -0.599306C37.8256 -0.532481 37.8126 -0.4611 37.8138 -0.389232C37.8138 -0.0125663 37.6536 0.158807 37.2792 0.158807C36.5417 0.14753 36.5417 1.25955 37.2792 1.24828C37.6401 1.24828 37.8138 1.34745 37.8138 1.77374C37.8048 2.51128 38.9144 2.51128 38.9054 1.77374C38.9054 1.38805 39.0859 1.24828 39.4422 1.24828C40.1798 1.25955 40.1798 0.14753 39.4422 0.158807C38.9573 0.158807 38.9054 -0.118521 38.9054 -0.391434C38.9063 -0.464446 38.8926 -0.536932 38.865 -0.604538C38.8374 -0.672143 38.7966 -0.733489 38.7448 -0.785015C38.6931 -0.836541 38.6315 -0.877194 38.5638 -0.904507C38.4961 -0.931819 38.4236 -0.945229 38.3506 -0.944016H38.3528ZM14.3162 6.0683C13.9395 6.0683 13.6395 6.38394 13.644 6.76061C13.644 7.23426 13.441 7.44865 12.9719 7.44865C12.0494 7.42609 12.0494 8.82891 12.9719 8.81537C13.4253 8.81537 13.644 8.94166 13.644 9.47396C13.6328 10.3964 15.0244 10.3964 15.0109 9.47396C15.0109 8.98903 15.2364 8.81537 15.6875 8.81537C16.6077 8.83793 16.6077 7.43512 15.6875 7.44865C15.0785 7.44865 15.0109 7.10118 15.0109 6.76061C15.0121 6.66915 14.9949 6.57839 14.9604 6.49368C14.9259 6.40897 14.8747 6.33207 14.81 6.26749C14.7452 6.20292 14.6681 6.15209 14.5833 6.11785C14.4984 6.08362 14.4076 6.06678 14.3162 6.0683Z" fill="#3E3766"/>
</g>
<defs>
<clipPath id="clip0_62_16249">
<rect width="100" height="100" fill="white" transform="translate(0.5)"/>
</clipPath>
</defs>
</svg>
