<svg width="22" height="22" viewBox="0 0 22 22" fill="none" xmlns="http://www.w3.org/2000/svg">
<rect x="0.875" y="0.875" width="20.25" height="20.25" rx="10.125" fill="#F5F5F5"/>
<rect x="0.875" y="0.875" width="20.25" height="20.25" rx="10.125" stroke="#E98A31" stroke-width="0.25"/>
<path d="M7.21246 15H14.7867C15.361 15 15.8263 14.5347 15.8263 13.9604V9.0396C15.8263 8.46535 15.361 8 14.7867 8H7.21246C6.6382 8 6.17285 8.46535 6.17285 9.0396V13.9554C6.17285 14.5297 6.6382 15 7.21246 15ZM14.7867 14.2574H7.21246C7.04909 14.2574 6.91543 14.1238 6.91543 13.9604V9.77228L10.7966 12.3366C10.861 12.3762 10.9303 12.396 10.9996 12.396C11.0689 12.396 11.1431 12.3762 11.2026 12.3366L15.0837 9.77228V13.9604C15.0837 14.1238 14.9501 14.2574 14.7867 14.2574ZM7.21246 8.74257H14.7867C14.9006 8.74257 14.9946 8.80693 15.0441 8.90594L10.9996 11.5792L6.95503 8.90594C7.00453 8.81188 7.09859 8.74257 7.21246 8.74257Z" fill="#E98A31"/>
</svg>
