<svg width="22" height="22" viewBox="0 0 22 22" fill="none" xmlns="http://www.w3.org/2000/svg">
<g clip-path="url(#clip0_112_303)">
<rect x="1" y="1" width="20" height="20" rx="10" fill="#F5F5F5"/>
<path d="M10.995 6C8.235 6 6 8.24 6 11C6 13.76 8.235 16 10.995 16C13.76 16 16 13.76 16 11C16 8.24 13.76 6 10.995 6ZM14.46 9H12.985C12.825 8.375 12.595 7.775 12.295 7.22C13.215 7.535 13.98 8.175 14.46 9ZM11 7.02C11.415 7.62 11.74 8.285 11.955 9H10.045C10.26 8.285 10.585 7.62 11 7.02ZM7.13 12C7.05 11.68 7 11.345 7 11C7 10.655 7.05 10.32 7.13 10H8.82C8.78 10.33 8.75 10.66 8.75 11C8.75 11.34 8.78 11.67 8.82 12H7.13ZM7.54 13H9.015C9.175 13.625 9.405 14.225 9.705 14.78C8.785 14.465 8.02 13.83 7.54 13ZM9.015 9H7.54C8.02 8.17 8.785 7.535 9.705 7.22C9.405 7.775 9.175 8.375 9.015 9ZM11 14.98C10.585 14.38 10.26 13.715 10.045 13H11.955C11.74 13.715 11.415 14.38 11 14.98ZM12.17 12H9.83C9.785 11.67 9.75 11.34 9.75 11C9.75 10.66 9.785 10.325 9.83 10H12.17C12.215 10.325 12.25 10.66 12.25 11C12.25 11.34 12.215 11.67 12.17 12ZM12.295 14.78C12.595 14.225 12.825 13.625 12.985 13H14.46C13.98 13.825 13.215 14.465 12.295 14.78ZM13.18 12C13.22 11.67 13.25 11.34 13.25 11C13.25 10.66 13.22 10.33 13.18 10H14.87C14.95 10.32 15 10.655 15 11C15 11.345 14.95 11.68 14.87 12H13.18Z" fill="#E98A31"/>
</g>
<rect x="0.875" y="0.875" width="20.25" height="20.25" rx="10.125" stroke="#E98A31" stroke-width="0.25"/>
<defs>
<clipPath id="clip0_112_303">
<rect x="1" y="1" width="20" height="20" rx="10" fill="white"/>
</clipPath>
</defs>
</svg>
