<svg width="28" height="23" viewBox="0 0 28 23" fill="none" xmlns="http://www.w3.org/2000/svg">
<path fill-rule="evenodd" clip-rule="evenodd" d="M23.725 20H19.725V13.001C19.725 11.081 18.878 10.01 17.359 10.01C15.706 10.01 14.725 11.126 14.725 13.001V20H10.725V7H14.725V8.462C14.725 8.462 15.98 6.26 18.808 6.26C21.637 6.26 23.725 7.986 23.725 11.558V20ZM6.167 4.921C5.84504 4.91982 5.52647 4.85522 5.22949 4.73089C4.93251 4.60657 4.66293 4.42494 4.43615 4.19641C4.20938 3.96787 4.02985 3.69689 3.90783 3.39895C3.78581 3.10101 3.72368 2.78195 3.725 2.46C3.72381 2.13813 3.78604 1.81918 3.90812 1.52136C4.0302 1.22353 4.20975 0.952673 4.43651 0.72424C4.66327 0.495808 4.9328 0.314276 5.22972 0.190011C5.52664 0.0657456 5.84513 0.00117973 6.167 0C6.81687 0.00264708 7.43909 0.263281 7.89684 0.724593C8.35459 1.1859 8.61039 1.81013 8.608 2.46C8.60944 2.78191 8.54744 3.10094 8.42553 3.39888C8.30361 3.69681 8.12418 3.96779 7.89749 4.19635C7.67079 4.4249 7.40128 4.60653 7.10435 4.73087C6.80742 4.85521 6.4889 4.91982 6.167 4.921ZM3.725 20H8.725V7H3.725V20Z" fill="#E98A31"/>
</svg>
