<svg width="22" height="22" viewBox="0 0 22 22" fill="none" xmlns="http://www.w3.org/2000/svg">
<rect x="0.875" y="0.875" width="20.25" height="20.25" rx="10.125" fill="#F5F5F5"/>
<rect x="0.875" y="0.875" width="20.25" height="20.25" rx="10.125" stroke="#E98A31" stroke-width="0.25"/>
<path d="M11.4943 6C9.58793 6 8.03516 7.55277 8.03516 9.45913C8.03492 9.49983 8.04115 9.54031 8.05361 9.57905C8.08513 10.7936 8.61092 11.8544 9.22972 12.8399C9.86927 13.8568 10.6095 14.81 11.0846 15.7832C11.1157 15.8475 11.1642 15.9019 11.2246 15.9402C11.2849 15.9785 11.3547 15.9992 11.4262 16C11.4977 16.0008 11.5679 15.9816 11.6291 15.9447C11.6903 15.9078 11.74 15.8545 11.7726 15.7909C12.2707 14.8185 13.0486 13.8638 13.7212 12.8475C14.3923 11.8313 14.9657 10.7336 14.9657 9.46528C14.9664 9.41645 14.9578 9.36792 14.9404 9.32231C14.8666 7.48128 13.353 6 11.4943 6ZM11.4943 6.7687C12.9856 6.7687 14.1847 7.96863 14.1847 9.45913C14.1843 9.48675 14.1869 9.51432 14.1924 9.54138C14.1694 10.5468 13.7035 11.4785 13.0778 12.424C12.5497 13.2242 11.9532 14.0506 11.4374 14.9092C10.9478 14.0544 10.3835 13.2296 9.88234 12.4317C9.272 11.4608 8.81616 10.5061 8.81616 9.46451C8.81634 9.44055 8.81428 9.41661 8.81001 9.39303C8.8249 8.6913 9.11436 8.02338 9.61625 7.53271C10.1181 7.04204 10.7924 6.76773 11.4943 6.7687ZM11.4943 8.30916C10.8624 8.30916 10.3413 8.82957 10.3413 9.46221C10.3413 10.0941 10.8624 10.6153 11.4943 10.6153C12.1269 10.6153 12.6473 10.0941 12.6473 9.46221C12.6473 8.82957 12.1269 8.30916 11.4943 8.30916ZM11.4943 9.07786C11.7111 9.07786 11.8786 9.24544 11.8786 9.46221C11.8786 9.67898 11.7111 9.84656 11.4943 9.84656C11.4436 9.84728 11.3933 9.83784 11.3464 9.81878C11.2994 9.79972 11.2567 9.77143 11.2209 9.7356C11.1851 9.69976 11.1568 9.6571 11.1377 9.61015C11.1187 9.56319 11.1092 9.51288 11.1099 9.46221C11.1099 9.24544 11.2775 9.07786 11.4943 9.07786Z" fill="#E98A31"/>
</svg>
