<svg width="265" height="156" viewBox="0 0 265 156" fill="none" xmlns="http://www.w3.org/2000/svg">
<path d="M214.121 0.114502H191.234L179.79 132.545H193.376L200.553 31.5891C200.762 28.9067 200.953 26.2766 201.162 23.7161C201.371 21.1556 201.563 18.5256 201.772 15.8432H202.834C203.043 18.5256 203.235 21.1556 203.444 23.7161C203.653 26.2766 203.845 28.9067 204.054 31.5891L210.916 132.545H224.799L214.121 0.114502Z" fill="#757B7E"/>
<path d="M158.54 132.545V20.3372H172.422V132.545H158.54Z" fill="#757B7E"/>
<path d="M158.54 16.4702V0.114502H172.422V16.4702H158.54Z" fill="#E98A31"/>
<path d="M71.1007 132.545V0.114502H106.808V13.0911H84.5301V118.872H106.669V132.545H71.1007Z" fill="#757B7E"/>
<path d="M265 56.1487H63.855V76.5105H265V56.1487Z" fill="#E98A31"/>
<path d="M227.133 73.0094V59.6846H230.442C230.947 59.6846 231.365 59.7542 231.679 59.8936C232.01 60.0329 232.254 60.2767 232.463 60.6077C232.654 60.956 232.794 61.409 232.881 61.9663C232.95 62.5411 233.003 63.2553 233.003 64.1087C233.003 64.9622 232.968 65.6589 232.881 66.2511C232.811 66.8259 232.672 67.2963 232.48 67.6621C232.289 68.0279 232.027 68.2891 231.696 68.4459C231.365 68.6026 230.93 68.6897 230.425 68.6897H228.997V73.0094H227.15H227.133ZM230.111 67.1569C230.286 67.1569 230.425 67.1046 230.547 67.0176C230.669 66.9305 230.773 66.7563 230.86 66.5299C230.947 66.3035 231 65.99 231.052 65.5894C231.087 65.1887 231.122 64.7009 231.122 64.0913C231.122 63.4817 231.104 63.0114 231.052 62.6282C231.017 62.245 230.947 61.9664 230.86 61.7573C230.773 61.5657 230.669 61.4263 230.547 61.3566C230.425 61.287 230.268 61.2521 230.111 61.2521H228.997V67.1569H230.129H230.111Z" fill="black"/>
<path d="M236.225 73.0095V59.6672H238.071V71.0239H240.911V73.0095H236.208H236.225Z" fill="black"/>
<path d="M248.017 59.6672H249.863V68.324C249.863 68.864 249.863 69.2995 249.863 69.6652C249.863 70.031 249.846 70.3445 249.829 70.6058C249.811 70.8671 249.776 71.111 249.707 71.3026C249.654 71.4942 249.567 71.7032 249.48 71.8948C249.271 72.3129 248.975 72.609 248.592 72.7657C248.209 72.9225 247.634 73.0095 246.902 73.0095C246.171 73.0095 245.579 72.9225 245.178 72.7657C244.795 72.609 244.499 72.3129 244.29 71.8948C244.185 71.7032 244.115 71.4942 244.063 71.3026C244.011 71.111 243.959 70.8671 243.941 70.6058C243.906 70.3445 243.889 70.031 243.889 69.6652C243.889 69.2995 243.889 68.8466 243.889 68.324V59.6672H245.805V68.324C245.805 68.7421 245.805 69.0905 245.805 69.3517C245.805 69.613 245.822 69.822 245.84 69.9962C245.84 70.1704 245.875 70.2923 245.91 70.3968C245.944 70.5013 245.997 70.5885 246.049 70.693C246.136 70.8323 246.24 70.9368 246.38 70.9716C246.519 71.0239 246.693 71.0412 246.937 71.0412C247.181 71.0412 247.355 71.0239 247.477 70.9716C247.599 70.9194 247.704 70.8323 247.791 70.693C247.843 70.5885 247.895 70.5013 247.93 70.3968C247.965 70.2923 247.982 70.1704 248 69.9962C248 69.822 248.017 69.613 248.035 69.3517C248.035 69.0905 248.035 68.7595 248.035 68.324V59.6672H248.017Z" fill="black"/>
<path d="M254.741 68.4807C254.706 68.6027 254.688 68.742 254.688 68.8987C254.688 69.0555 254.688 69.2646 254.688 69.491C254.688 69.9961 254.688 70.3445 254.723 70.5709C254.758 70.7974 254.81 70.9716 254.915 71.1283C255.002 71.2502 255.089 71.3373 255.211 71.3895C255.315 71.4418 255.507 71.4593 255.733 71.4593C256.012 71.4593 256.221 71.4418 256.326 71.3895C256.448 71.3373 256.552 71.2328 256.657 71.0934C256.761 70.9367 256.813 70.7277 256.848 70.4839C256.883 70.24 256.883 69.8219 256.883 69.2646V68.7246C256.883 68.5853 256.883 68.4633 256.866 68.3588C256.866 68.2543 256.831 68.1847 256.831 68.0976C256.831 68.0279 256.796 67.9408 256.761 67.8537C256.709 67.6969 256.639 67.575 256.535 67.4879C256.448 67.4008 256.291 67.3137 256.082 67.1744C255.908 67.0699 255.716 66.9654 255.507 66.8608C255.298 66.7563 255.089 66.6344 254.88 66.5299C254.671 66.408 254.462 66.3034 254.27 66.1815C254.079 66.0596 253.905 65.9376 253.765 65.8331C253.626 65.7112 253.504 65.5893 253.399 65.45C253.295 65.3106 253.225 65.119 253.173 64.8926C253.121 64.6661 253.068 64.37 253.051 64.0217C253.016 63.6733 253.016 63.2204 253.016 62.6804C253.016 61.9663 253.068 61.4264 253.173 61.078C253.278 60.7122 253.452 60.4335 253.713 60.2071C253.939 60.0155 254.201 59.8762 254.497 59.8065C254.793 59.7194 255.211 59.6846 255.768 59.6846C256.413 59.6846 256.9 59.7368 257.231 59.8587C257.562 59.9806 257.824 60.12 257.998 60.3116C258.189 60.5206 258.329 60.7993 258.398 61.0954C258.468 61.409 258.503 61.8445 258.503 62.4367C258.503 62.8025 258.503 63.0985 258.468 63.3249C258.451 63.5513 258.416 63.743 258.381 63.8997H256.796C256.831 63.7778 256.848 63.6559 256.848 63.4817C256.848 63.325 256.848 63.0985 256.848 62.8373C256.848 62.4018 256.831 62.0883 256.779 61.8793C256.744 61.6703 256.657 61.496 256.552 61.3741C256.465 61.287 256.378 61.2174 256.256 61.1999C256.152 61.1651 255.977 61.1651 255.751 61.1651C255.524 61.1651 255.368 61.1651 255.263 61.2174C255.159 61.2696 255.072 61.3219 254.984 61.4264C254.88 61.5483 254.828 61.7224 254.793 61.914C254.758 62.1231 254.741 62.454 254.741 62.9069V63.5514C254.741 63.7081 254.741 63.8475 254.741 63.952C254.741 64.0566 254.758 64.1436 254.775 64.2307C254.793 64.3004 254.828 64.3875 254.845 64.4571C254.915 64.5965 254.984 64.7184 255.054 64.7881C255.124 64.8578 255.263 64.9622 255.49 65.1016C255.751 65.2584 256.047 65.4152 256.413 65.5719C256.779 65.7287 257.11 65.9028 257.44 66.0944C257.702 66.2338 257.876 66.3558 257.998 66.4603C258.12 66.5648 258.224 66.7041 258.346 66.8783C258.398 66.9828 258.451 67.0873 258.486 67.1918C258.52 67.2963 258.555 67.4356 258.573 67.5924C258.59 67.7666 258.607 67.9756 258.607 68.2543C258.607 68.5156 258.607 68.864 258.607 69.282C258.607 69.7175 258.607 70.1006 258.573 70.4141C258.538 70.7276 258.503 70.989 258.451 71.2154C258.398 71.4418 258.346 71.616 258.277 71.7728C258.207 71.9295 258.137 72.0689 258.05 72.2082C257.876 72.4695 257.615 72.661 257.249 72.8004C256.883 72.9397 256.361 73.0094 255.699 73.0094C255.124 73.0094 254.671 72.9572 254.34 72.8527C254.009 72.7482 253.748 72.5565 253.556 72.2604C253.469 72.1385 253.399 71.9992 253.33 71.8773C253.26 71.7379 253.208 71.5811 253.156 71.407C253.121 71.2328 253.086 71.0064 253.068 70.7625C253.051 70.5186 253.034 70.2052 253.034 69.8394C253.034 69.5433 253.034 69.282 253.068 69.073C253.086 68.8466 253.121 68.6549 253.138 68.4982H254.741V68.4807Z" fill="black"/>
<path style="mix-blend-mode:multiply" opacity="0.22" d="M71.0661 56.1487H63.855V76.5105H71.0661V56.1487Z" fill="url(#paint0_linear_98_6702)"/>
<path style="mix-blend-mode:multiply" opacity="0.22" d="M158.349 56.1487H151.137V76.5105H158.349V56.1487Z" fill="url(#paint1_linear_98_6702)"/>
<path style="mix-blend-mode:multiply" opacity="0.22" d="M205.726 76.5105H197.121L198.515 56.1487H205.726V76.5105Z" fill="url(#paint2_linear_98_6702)"/>
<path style="mix-blend-mode:multiply" opacity="0.22" d="M114.019 56.1487H106.808V76.5105H114.019V56.1487Z" fill="url(#paint3_linear_98_6702)"/>
<path style="mix-blend-mode:multiply" opacity="0.22" d="M184.946 76.5105H177.735V56.1487H186.601L184.946 76.5105Z" fill="url(#paint4_linear_98_6702)"/>
<path d="M51.8886 132.545V37.1108C51.8886 34.0278 51.9408 31.3106 52.0454 28.9765H51.279C51.1744 29.7952 51.0525 30.7531 50.8958 31.8679C50.739 32.9827 50.4951 34.8116 50.1294 37.3721C49.7636 39.9326 49.241 43.4336 48.5269 47.8752C47.8127 52.3168 46.8722 58.2216 45.7051 65.6243C44.5381 73.027 43.1098 82.189 41.4377 93.0928C39.7655 103.997 37.6928 117.147 35.2542 132.545H28.8444C26.4058 117.147 24.3156 103.997 22.5912 93.0928C20.8668 82.189 19.4037 73.027 18.2367 65.6243C17.0697 58.2216 16.1291 52.2646 15.415 47.7707C14.7008 43.2768 14.1608 39.7758 13.8125 37.2676C13.4467 34.7594 13.2028 32.9478 13.0461 31.8505C12.8893 30.7357 12.7674 29.7777 12.6629 28.9591H11.8965C12.001 31.2931 12.0532 34.0103 12.0532 37.0933V132.528H-0.00012207V0.097168H21.6681C23.706 15.2684 25.3259 27.4437 26.5452 36.6579C27.7644 45.8721 28.7398 53.1703 29.4366 58.5351C30.1507 63.8999 30.6384 67.8713 30.8823 70.4317C31.1436 72.9922 31.37 75.274 31.5616 77.2596H32.328C32.4325 75.274 32.6415 73.0096 32.9376 70.4317C33.2512 67.8713 33.7563 63.8999 34.4704 58.5351C35.1846 53.1703 36.1774 45.8895 37.4489 36.6579C38.7205 27.4437 40.3752 15.251 42.4131 0.097168H63.9245V132.528H51.8712L51.8886 132.545Z" fill="#757B7E"/>
<path d="M114.019 132.597V0.114502H131.089C144.571 0.114502 151.311 5.93219 151.311 17.5501V115.144C151.311 126.762 144.571 132.58 131.089 132.58H114.019V132.597ZM136.663 17.3585C136.663 13.1608 134.921 11.0532 131.472 11.0532H128.319V120.718H131.472C134.938 120.718 136.663 118.61 136.663 114.413V17.3759V17.3585Z" fill="#757B7E"/>
<path d="M214.121 0.114603H191.234L179.79 132.545H193.376L200.553 31.5892C200.762 28.9068 200.953 26.2767 201.162 23.7162C201.371 21.1557 201.563 18.5257 201.772 15.8433L214.139 0.097168L214.121 0.114603Z" fill="#757B7E"/>
<path style="mix-blend-mode:multiply" opacity="0.22" d="M158.54 6.50694V0.114502H172.422V6.50694H158.54Z" fill="url(#paint5_linear_98_6702)"/>
<path d="M9.87602 152.68C9.87602 152.68 9.7541 152.733 9.68442 152.733H8.11678C8.11678 152.733 7.97744 152.698 7.94261 152.646C7.89035 152.576 7.87293 152.506 7.87293 152.437V145.225C7.87293 145.121 7.87293 145.069 7.82068 145.069C7.82068 145.069 7.78584 145.104 7.751 145.156L6.25304 148.117C6.25304 148.117 6.13111 148.256 6.04402 148.308C5.95693 148.361 5.85243 148.378 5.76533 148.378H4.1977C4.09319 148.378 4.0061 148.361 3.91901 148.308C3.83192 148.256 3.76224 148.204 3.70999 148.117L2.21203 145.156L2.14235 145.069C2.10752 145.069 2.0901 145.121 2.0901 145.225V152.437C2.0901 152.437 2.07268 152.593 2.02043 152.646C1.96817 152.715 1.91592 152.733 1.84625 152.733H0.278609C0.278609 152.733 0.139263 152.715 0.0870083 152.68C0.0347537 152.646 0.017334 152.593 0.017334 152.506V141.829C0.017334 141.655 0.0695991 141.498 0.191526 141.393C0.313453 141.289 0.452799 141.219 0.62698 141.219H1.8985C2.02043 141.219 2.14235 141.254 2.24686 141.324C2.35137 141.393 2.42105 141.48 2.4733 141.602L4.82475 146.358C4.82475 146.358 4.89443 146.479 4.91185 146.514C4.92927 146.549 4.9641 146.567 4.98152 146.567C4.99894 146.567 5.03377 146.549 5.05118 146.514C5.0686 146.479 5.10344 146.427 5.13828 146.358L7.48973 141.602C7.54198 141.48 7.61167 141.393 7.71617 141.324C7.82068 141.254 7.92519 141.219 8.06453 141.219H9.33606C9.51025 141.219 9.66701 141.271 9.77152 141.393C9.89345 141.515 9.9457 141.655 9.9457 141.829V152.506C9.9457 152.506 9.92828 152.646 9.87602 152.68Z" fill="#757B7E"/>
<path d="M20.0831 152.628C20.0831 152.628 19.9438 152.715 19.8741 152.715H18.5503C18.5503 152.715 18.3936 152.68 18.3413 152.628C18.289 152.576 18.2542 152.489 18.2542 152.419V152.175C17.8884 152.384 17.5226 152.558 17.1743 152.68C16.8085 152.802 16.4427 152.854 16.0769 152.854C15.7634 152.854 15.4325 152.82 15.1189 152.75C14.8054 152.68 14.5093 152.541 14.2654 152.349C14.0042 152.158 13.8126 151.896 13.6384 151.566C13.4816 151.235 13.3945 150.799 13.3945 150.277V150.207C13.3945 149.319 13.6906 148.639 14.2829 148.204C14.8751 147.768 15.8331 147.524 17.1917 147.524H18.1671V146.828C18.1671 146.323 18.0626 145.974 17.8362 145.818C17.6097 145.643 17.2614 145.574 16.8085 145.574C16.3034 145.574 15.8331 145.574 15.3628 145.609C14.8925 145.626 14.5267 145.661 14.2829 145.696H14.2132C14.2132 145.696 14.0564 145.696 14.0042 145.643C13.9519 145.608 13.9345 145.539 13.9345 145.434V144.441C13.9345 144.267 14.039 144.163 14.2306 144.11C14.5441 144.041 14.9099 143.989 15.3628 143.936C15.7982 143.884 16.2859 143.867 16.8259 143.867C17.9407 143.867 18.7767 144.111 19.369 144.598C19.9612 145.086 20.2399 145.835 20.2399 146.828V152.419C20.2399 152.419 20.205 152.576 20.1528 152.628H20.0831ZM18.1149 148.883H17.1394C16.7911 148.883 16.495 148.918 16.2685 148.97C16.0421 149.022 15.8679 149.109 15.746 149.214C15.6241 149.318 15.5196 149.458 15.4847 149.632C15.4325 149.806 15.415 149.98 15.415 150.207V150.277C15.415 150.66 15.5021 150.921 15.6763 151.043C15.8505 151.165 16.1466 151.235 16.5298 151.235C16.8085 151.235 17.0872 151.2 17.3659 151.113C17.6446 151.026 17.8884 150.921 18.1149 150.799V148.883Z" fill="#757B7E"/>
<path d="M28.1477 145.504C28.1477 145.504 28.0083 145.591 27.9387 145.591C27.5206 145.591 27.1374 145.643 26.8065 145.73C26.4756 145.835 26.1446 145.974 25.8137 146.148V152.384C25.8137 152.384 25.7788 152.541 25.7266 152.611C25.6569 152.68 25.5872 152.715 25.5175 152.715H24.0893C24.0893 152.715 23.9325 152.68 23.8802 152.611C23.8106 152.541 23.7932 152.471 23.7932 152.384V144.267C23.7932 144.267 23.828 144.111 23.8802 144.058C23.9325 144.006 24.0196 143.971 24.0893 143.971H25.4479C25.4479 143.971 25.6046 144.006 25.6569 144.058C25.7092 144.111 25.744 144.198 25.744 144.267V144.598C26.1272 144.302 26.5104 144.093 26.911 144.006C27.3116 143.901 27.66 143.867 27.9735 143.867C28.0606 143.867 28.1303 143.902 28.1825 143.954C28.2348 144.006 28.2696 144.093 28.2696 144.163V145.278C28.2696 145.278 28.2348 145.434 28.1825 145.487L28.1477 145.504Z" fill="#757B7E"/>
<path d="M38.163 152.541C38.163 152.541 38.1456 152.628 38.0934 152.68C38.0585 152.715 38.0063 152.733 37.9366 152.733H36.038C36.038 152.733 35.8638 152.698 35.7942 152.628C35.7071 152.558 35.6374 152.489 35.5852 152.419L33.1466 148.883V152.402C33.1466 152.402 33.1118 152.558 33.0595 152.628C32.9898 152.698 32.9202 152.733 32.8505 152.733H31.4222C31.4222 152.733 31.2654 152.698 31.2132 152.628C31.1435 152.558 31.1261 152.489 31.1261 152.402V141.219C31.1261 141.219 31.1609 141.062 31.2132 141.01C31.2654 140.958 31.3525 140.923 31.4222 140.923H32.8505C32.8505 140.923 33.0073 140.958 33.0595 141.01C33.1118 141.062 33.1466 141.15 33.1466 141.219V147.699L35.7942 144.163C35.7942 144.163 35.8987 144.041 35.9683 144.023C36.038 144.006 36.0903 143.989 36.1425 143.989H37.8844C38.0411 143.989 38.1108 144.041 38.1108 144.163C38.1108 144.215 38.0934 144.267 38.0411 144.32L34.9233 148.152L38.076 152.436C38.076 152.436 38.1282 152.524 38.1282 152.558L38.163 152.541Z" fill="#757B7E"/>
<path d="M48.0218 149.057H42.9531V149.109C42.9531 149.336 42.988 149.562 43.0402 149.806C43.0925 150.033 43.197 150.259 43.3363 150.451C43.4757 150.642 43.6673 150.799 43.9111 150.921C44.155 151.043 44.4511 151.095 44.8343 151.095C45.4091 151.095 45.9316 151.078 46.4368 151.043C46.9419 151.008 47.3599 150.973 47.6909 150.938H47.7431C47.7431 150.938 47.8999 150.956 47.9521 150.991C48.0044 151.026 48.0218 151.078 48.0218 151.165V152.193C48.0218 152.314 48.0044 152.401 47.9695 152.471C47.9347 152.541 47.8476 152.576 47.6909 152.593C47.447 152.628 47.2032 152.68 46.9941 152.715C46.7851 152.75 46.5587 152.785 46.3322 152.802C46.1058 152.82 45.862 152.837 45.6007 152.854C45.3394 152.854 45.0259 152.854 44.6775 152.854C44.2943 152.854 43.8763 152.802 43.4408 152.68C43.0054 152.558 42.6048 152.349 42.2216 152.053C41.8558 151.757 41.5423 151.356 41.2984 150.851C41.0545 150.346 40.9326 149.719 40.9326 148.953V147.803C40.9326 147.193 41.0197 146.636 41.1765 146.166C41.3332 145.678 41.5771 145.26 41.8906 144.929C42.2041 144.581 42.6048 144.32 43.0576 144.145C43.5279 143.971 44.0505 143.867 44.6427 143.867C45.2349 143.867 45.7749 143.954 46.2277 144.145C46.6806 144.337 47.0812 144.616 47.3773 144.964C47.6909 145.312 47.9173 145.73 48.0915 146.218C48.2657 146.706 48.3353 147.228 48.3353 147.803V148.674C48.3353 148.935 48.2308 149.057 48.0218 149.057ZM46.2974 147.542C46.2974 146.932 46.1406 146.462 45.8445 146.131C45.5484 145.8 45.1478 145.626 44.6601 145.626C44.1724 145.626 43.7718 145.783 43.4582 146.114C43.1447 146.445 42.988 146.915 42.988 147.542V147.612H46.3148V147.542H46.2974Z" fill="#757B7E"/>
<path d="M56.2257 152.75C56.0341 152.785 55.8599 152.802 55.6857 152.82C55.5115 152.837 55.3374 152.855 55.1632 152.855C54.7277 152.855 54.362 152.82 54.0484 152.768C53.7349 152.698 53.4736 152.576 53.282 152.402C53.0904 152.228 52.9511 151.966 52.8466 151.653C52.7595 151.339 52.7072 150.921 52.7072 150.399V145.522L51.2441 145.312C51.2441 145.312 51.0873 145.26 51.0351 145.208C50.9654 145.156 50.948 145.086 50.948 144.999V144.302C50.948 144.302 50.9828 144.145 51.0351 144.093C51.0873 144.041 51.1744 144.006 51.2441 144.006H52.7072V142.735C52.7072 142.735 52.7421 142.578 52.7943 142.526C52.864 142.473 52.9337 142.439 53.0033 142.421L54.4316 142.177H54.5013C54.6581 142.177 54.7452 142.247 54.7452 142.404V144.006H56.1386C56.1386 144.006 56.2954 144.041 56.3476 144.093C56.3999 144.145 56.4347 144.233 56.4347 144.302V145.225C56.4347 145.225 56.3999 145.382 56.3476 145.434C56.2954 145.487 56.2083 145.522 56.1386 145.522H54.7452V150.399C54.7452 150.59 54.7452 150.747 54.7452 150.869C54.7452 150.991 54.78 151.078 54.8148 151.13C54.8497 151.2 54.9193 151.235 55.0064 151.252C55.0935 151.27 55.198 151.27 55.3374 151.27H56.156C56.365 151.27 56.487 151.339 56.487 151.496V152.471C56.487 152.628 56.3825 152.715 56.1909 152.75H56.2257Z" fill="#757B7E"/>
<path d="M61.5383 142.717C61.5383 142.717 61.399 142.804 61.3293 142.804H59.8313C59.8313 142.804 59.6745 142.77 59.6049 142.717C59.5352 142.648 59.5004 142.578 59.5004 142.508V141.15C59.5004 141.15 59.5352 140.993 59.6049 140.941C59.6745 140.871 59.7442 140.854 59.8313 140.854H61.3293C61.3293 140.854 61.486 140.888 61.5383 140.941C61.5905 140.993 61.6254 141.08 61.6254 141.15V142.508C61.6254 142.508 61.5905 142.665 61.5383 142.717ZM61.486 152.628C61.486 152.628 61.3467 152.733 61.277 152.733H59.8487C59.8487 152.733 59.692 152.698 59.6397 152.628C59.57 152.559 59.5526 152.489 59.5526 152.402V144.285C59.5526 144.285 59.5875 144.128 59.6397 144.076C59.692 144.024 59.7791 143.989 59.8487 143.989H61.277C61.277 143.989 61.4338 144.024 61.486 144.076C61.5383 144.128 61.5731 144.215 61.5731 144.285V152.402C61.5731 152.402 61.5383 152.559 61.486 152.628Z" fill="#757B7E"/>
<path d="M72.268 152.628C72.268 152.628 72.1287 152.733 72.059 152.733H70.6307C70.6307 152.733 70.4739 152.698 70.4217 152.628C70.352 152.559 70.3346 152.489 70.3346 152.402V147.351C70.3346 147.002 70.3346 146.723 70.2998 146.497C70.2824 146.271 70.2127 146.096 70.1256 145.974C70.0385 145.853 69.8992 145.748 69.725 145.696C69.5508 145.644 69.3069 145.609 69.0108 145.609C68.7495 145.609 68.4709 145.661 68.1748 145.748C67.8961 145.853 67.5825 145.992 67.2516 146.166V152.402C67.2516 152.402 67.2168 152.559 67.1645 152.628C67.0948 152.698 67.0251 152.733 66.9555 152.733H65.5272C65.5272 152.733 65.3704 152.698 65.3182 152.628C65.2485 152.559 65.2311 152.489 65.2311 152.402V144.285C65.2311 144.285 65.2659 144.128 65.3182 144.076C65.3704 144.024 65.4575 143.989 65.5272 143.989H66.8858C66.8858 143.989 67.0426 144.024 67.0948 144.076C67.1471 144.128 67.1819 144.215 67.1819 144.285V144.616C67.4084 144.477 67.6174 144.355 67.809 144.268C68.0006 144.18 68.1922 144.093 68.3838 144.041C68.5754 143.989 68.7844 143.937 68.9934 143.919C69.2024 143.902 69.4289 143.884 69.6901 143.884C70.2475 143.884 70.7004 143.971 71.0487 144.146C71.3971 144.32 71.6758 144.564 71.8674 144.877C72.059 145.191 72.1983 145.556 72.268 145.974C72.3377 146.393 72.3725 146.863 72.3725 147.351V152.402C72.3725 152.402 72.3377 152.559 72.2854 152.628H72.268Z" fill="#757B7E"/>
<path d="M83.5026 145.278C83.5026 145.278 83.3981 145.348 83.311 145.4L82.8058 145.609C82.9278 145.783 83.0323 145.975 83.0845 146.166C83.1542 146.358 83.189 146.584 83.189 146.863V146.967C83.189 147.943 82.8755 148.657 82.231 149.11C81.5866 149.563 80.6808 149.789 79.5138 149.789C79.0958 149.789 78.7474 149.754 78.4687 149.702C78.19 149.65 77.9636 149.58 77.8242 149.528C77.65 149.65 77.563 149.772 77.563 149.929C77.563 150.085 77.6152 150.19 77.7023 150.277C77.7894 150.347 77.9287 150.399 78.1029 150.451L79.9318 150.887C80.4544 151.008 80.9421 151.13 81.3601 151.252C81.7956 151.374 82.1614 151.514 82.4575 151.688C82.7536 151.862 82.9974 152.088 83.1542 152.35C83.3284 152.611 83.398 152.959 83.398 153.36V153.464C83.398 154.266 83.102 154.858 82.4923 155.276C81.8827 155.694 80.9247 155.903 79.6009 155.903C78.2771 155.903 77.3888 155.677 76.7269 155.224C76.065 154.771 75.7515 154.144 75.7515 153.325V153.186C75.7515 152.872 75.8212 152.559 75.9605 152.263C76.0998 151.966 76.2914 151.705 76.5353 151.479C76.3263 151.305 76.1521 151.096 76.0302 150.852C75.9082 150.59 75.8386 150.329 75.8386 150.051C75.8386 149.789 75.8908 149.563 75.9953 149.336C76.0998 149.11 76.2566 148.918 76.4656 148.779C76.2218 148.535 76.065 148.274 75.9605 147.995C75.856 147.716 75.8212 147.368 75.8212 146.967V146.863C75.8212 146.462 75.8908 146.097 76.0302 145.766C76.1695 145.417 76.3785 145.121 76.6747 144.86C76.9708 144.599 77.354 144.39 77.8068 144.233C78.2771 144.076 78.8345 144.006 79.5138 144.006H83.1542C83.2761 144.006 83.3632 144.041 83.4503 144.128C83.5374 144.215 83.5722 144.302 83.5722 144.424V145.069C83.5722 145.191 83.5548 145.26 83.52 145.295L83.5026 145.278ZM81.3427 153.325C81.3427 153.325 81.3253 153.168 81.2905 153.099C81.2556 153.029 81.1685 152.959 81.0466 152.89C80.9247 152.82 80.7331 152.75 80.4892 152.663C80.2454 152.594 79.9144 152.506 79.5138 152.402L78.1378 152.071C78.0158 152.245 77.9287 152.385 77.8591 152.524C77.7894 152.663 77.7546 152.872 77.7546 153.151V153.29C77.7546 153.447 77.7894 153.586 77.8417 153.726C77.8939 153.848 77.9984 153.97 78.1378 154.057C78.2771 154.144 78.4687 154.213 78.7126 154.266C78.9564 154.318 79.2525 154.335 79.6183 154.335C79.9841 154.335 80.2976 154.318 80.5241 154.266C80.7505 154.231 80.9247 154.161 81.064 154.092C81.2034 154.022 81.273 153.935 81.3253 153.813C81.3776 153.691 81.395 153.569 81.395 153.43V153.325H81.3427ZM81.1685 146.863C81.1685 146.671 81.1511 146.497 81.0989 146.34C81.0466 146.184 80.9595 146.044 80.8376 145.922C80.7157 145.8 80.5415 145.713 80.3325 145.644C80.1234 145.574 79.8447 145.539 79.5138 145.539C79.1829 145.539 78.9042 145.574 78.6951 145.644C78.4861 145.713 78.312 145.8 78.19 145.922C78.0681 146.044 77.981 146.184 77.9287 146.34C77.8765 146.497 77.8591 146.671 77.8591 146.863V146.985C77.8591 147.124 77.8765 147.281 77.9287 147.42C77.9636 147.56 78.0507 147.699 78.1726 147.821C78.2945 147.943 78.4513 148.03 78.6777 148.1C78.8867 148.169 79.1829 148.204 79.5486 148.204C80.1931 148.204 80.6286 148.1 80.855 147.873C81.0814 147.647 81.2034 147.351 81.2034 146.967V146.846L81.1685 146.863Z" fill="#757B7E"/>
<path d="M104.335 152.489C104.335 152.489 104.195 152.576 104.091 152.61C104.021 152.61 103.917 152.645 103.777 152.68C103.62 152.715 103.446 152.732 103.22 152.767C103.011 152.785 102.767 152.819 102.488 152.837C102.227 152.854 101.931 152.872 101.635 152.872C101.164 152.872 100.677 152.802 100.154 152.663C99.6317 152.523 99.1614 152.279 98.7434 151.931C98.3253 151.583 97.9596 151.095 97.6809 150.485C97.4022 149.876 97.2628 149.092 97.2628 148.134V145.852C97.2628 144.877 97.4022 144.093 97.6809 143.466C97.9596 142.856 98.3253 142.369 98.7434 142.02C99.1614 141.672 99.6491 141.428 100.154 141.306C100.677 141.184 101.164 141.115 101.635 141.115C101.931 141.115 102.227 141.114 102.488 141.149C102.75 141.167 102.993 141.202 103.22 141.219C103.429 141.236 103.62 141.271 103.777 141.289C103.934 141.306 104.038 141.341 104.091 141.358C104.195 141.393 104.282 141.428 104.335 141.48C104.387 141.532 104.422 141.602 104.422 141.724V142.769C104.422 142.856 104.404 142.943 104.352 142.996C104.3 143.048 104.23 143.083 104.108 143.083H104.073C103.934 143.083 103.777 143.065 103.586 143.048C103.394 143.048 103.185 143.013 102.976 143.013C102.767 143.013 102.541 142.996 102.314 142.978C102.088 142.978 101.861 142.978 101.67 142.978C101.356 142.978 101.043 143.03 100.764 143.118C100.485 143.205 100.241 143.379 100.05 143.605C99.8581 143.832 99.7014 144.128 99.5794 144.511C99.4575 144.877 99.4052 145.347 99.4052 145.887V148.169C99.4052 148.709 99.4575 149.162 99.5794 149.528C99.7014 149.893 99.8407 150.207 100.05 150.433C100.241 150.66 100.485 150.816 100.764 150.921C101.043 151.025 101.339 151.06 101.67 151.06C101.879 151.06 102.088 151.06 102.314 151.06C102.541 151.06 102.767 151.043 102.976 151.025C103.185 151.025 103.394 151.008 103.586 150.991C103.777 150.991 103.934 150.956 104.073 150.956H104.108C104.23 150.956 104.3 150.991 104.352 151.043C104.404 151.095 104.422 151.182 104.422 151.269V152.314C104.422 152.436 104.387 152.506 104.335 152.558V152.489Z" fill="#757B7E"/>
<path d="M114.611 150.538C114.455 151.008 114.211 151.409 113.897 151.757C113.584 152.105 113.201 152.367 112.748 152.558C112.295 152.75 111.755 152.854 111.145 152.854C110.536 152.854 109.996 152.75 109.543 152.558C109.09 152.367 108.689 152.088 108.393 151.757C108.08 151.409 107.853 151.008 107.679 150.538C107.522 150.067 107.435 149.545 107.435 148.988V147.733C107.435 147.176 107.522 146.654 107.679 146.183C107.836 145.713 108.08 145.312 108.393 144.964C108.707 144.616 109.09 144.354 109.543 144.163C109.996 143.971 110.536 143.867 111.145 143.867C111.755 143.867 112.295 143.971 112.748 144.163C113.201 144.354 113.601 144.633 113.897 144.964C114.193 145.295 114.437 145.713 114.611 146.183C114.768 146.654 114.855 147.176 114.855 147.733V148.988C114.855 149.545 114.768 150.067 114.611 150.538ZM112.817 147.733C112.817 147.089 112.678 146.584 112.399 146.201C112.121 145.817 111.703 145.626 111.163 145.626C110.623 145.626 110.205 145.817 109.926 146.201C109.647 146.584 109.508 147.089 109.508 147.733V148.988C109.508 149.632 109.647 150.137 109.926 150.52C110.205 150.904 110.623 151.095 111.163 151.095C111.703 151.095 112.121 150.904 112.399 150.52C112.678 150.137 112.817 149.632 112.817 148.988V147.733Z" fill="#757B7E"/>
<path d="M129.208 152.628C129.208 152.628 129.069 152.732 128.999 152.732H127.571C127.571 152.732 127.414 152.698 127.362 152.628C127.292 152.558 127.274 152.489 127.274 152.402V147.141C127.274 146.845 127.257 146.601 127.222 146.41C127.187 146.218 127.135 146.061 127.048 145.957C126.961 145.835 126.856 145.765 126.7 145.713C126.56 145.661 126.369 145.643 126.16 145.643C126.02 145.643 125.811 145.678 125.533 145.73C125.271 145.783 124.993 145.887 124.714 146.027C124.731 146.201 124.749 146.375 124.766 146.566C124.766 146.758 124.766 146.95 124.766 147.141V152.402C124.766 152.402 124.731 152.558 124.679 152.628C124.61 152.698 124.54 152.732 124.47 152.732H123.042C123.042 152.732 122.885 152.698 122.833 152.628C122.763 152.558 122.746 152.489 122.746 152.402V147.141C122.746 146.845 122.746 146.601 122.694 146.41C122.659 146.218 122.606 146.061 122.537 145.957C122.467 145.835 122.345 145.765 122.206 145.713C122.066 145.661 121.892 145.643 121.666 145.643C121.352 145.643 120.882 145.818 120.238 146.148V152.402C120.238 152.402 120.203 152.558 120.15 152.628C120.081 152.698 120.011 152.732 119.941 152.732H118.513C118.513 152.732 118.356 152.698 118.304 152.628C118.234 152.558 118.217 152.489 118.217 152.402V144.285C118.217 144.285 118.252 144.128 118.304 144.076C118.356 144.023 118.443 143.989 118.513 143.989H119.872C119.872 143.989 120.029 144.023 120.081 144.076C120.133 144.128 120.168 144.215 120.168 144.302V144.633C120.499 144.424 120.83 144.25 121.178 144.093C121.526 143.954 121.927 143.867 122.397 143.867C122.868 143.867 123.216 143.936 123.512 144.058C123.808 144.18 124.035 144.354 124.226 144.563C124.627 144.354 125.01 144.18 125.393 144.058C125.777 143.936 126.247 143.867 126.787 143.867C127.327 143.867 127.745 143.954 128.076 144.128C128.407 144.302 128.668 144.529 128.86 144.825C129.051 145.121 129.173 145.469 129.243 145.852C129.312 146.253 129.347 146.671 129.347 147.124V152.402C129.347 152.402 129.312 152.558 129.26 152.628H129.208Z" fill="#757B7E"/>
<path d="M143.926 152.628C143.926 152.628 143.787 152.732 143.717 152.732H142.289C142.289 152.732 142.132 152.698 142.08 152.628C142.01 152.558 141.993 152.489 141.993 152.402V147.141C141.993 146.845 141.975 146.601 141.94 146.41C141.906 146.218 141.853 146.061 141.766 145.957C141.679 145.835 141.575 145.765 141.418 145.713C141.279 145.661 141.087 145.643 140.878 145.643C140.739 145.643 140.53 145.678 140.251 145.73C139.99 145.783 139.711 145.887 139.432 146.027C139.45 146.201 139.467 146.375 139.484 146.566C139.484 146.758 139.484 146.95 139.484 147.141V152.402C139.484 152.402 139.45 152.558 139.397 152.628C139.328 152.698 139.258 152.732 139.188 152.732H137.76C137.76 152.732 137.603 152.698 137.551 152.628C137.481 152.558 137.464 152.489 137.464 152.402V147.141C137.464 146.845 137.464 146.601 137.412 146.41C137.377 146.218 137.325 146.061 137.255 145.957C137.185 145.835 137.063 145.765 136.924 145.713C136.785 145.661 136.61 145.643 136.384 145.643C136.07 145.643 135.6 145.818 134.956 146.148V152.402C134.956 152.402 134.921 152.558 134.869 152.628C134.799 152.698 134.729 152.732 134.66 152.732H133.231C133.231 152.732 133.075 152.698 133.022 152.628C132.953 152.558 132.935 152.489 132.935 152.402V144.285C132.935 144.285 132.97 144.128 133.022 144.076C133.075 144.023 133.162 143.989 133.231 143.989H134.59C134.59 143.989 134.747 144.023 134.799 144.076C134.851 144.128 134.886 144.215 134.886 144.302V144.633C135.217 144.424 135.548 144.25 135.896 144.093C136.245 143.954 136.645 143.867 137.116 143.867C137.586 143.867 137.934 143.936 138.23 144.058C138.526 144.18 138.753 144.354 138.944 144.563C139.345 144.354 139.728 144.18 140.111 144.058C140.495 143.936 140.965 143.867 141.505 143.867C142.045 143.867 142.463 143.954 142.794 144.128C143.125 144.302 143.386 144.529 143.578 144.825C143.769 145.121 143.891 145.469 143.961 145.852C144.031 146.253 144.065 146.671 144.065 147.124V152.402C144.065 152.402 144.031 152.558 143.978 152.628H143.926Z" fill="#757B7E"/>
<path d="M154.673 152.628C154.673 152.628 154.534 152.715 154.464 152.715H153.036C153.036 152.715 152.879 152.68 152.827 152.628C152.757 152.559 152.74 152.489 152.74 152.419V152.071C152.339 152.332 151.956 152.524 151.59 152.663C151.224 152.785 150.806 152.855 150.301 152.855C149.901 152.855 149.552 152.802 149.221 152.698C148.89 152.593 148.612 152.437 148.385 152.193C148.089 151.897 147.898 151.531 147.776 151.061C147.654 150.59 147.601 150.033 147.601 149.371V144.32C147.601 144.32 147.636 144.163 147.689 144.093C147.758 144.024 147.828 143.989 147.898 143.989H149.326C149.326 143.989 149.483 144.024 149.535 144.093C149.587 144.163 149.622 144.233 149.622 144.32V149.388C149.622 149.789 149.639 150.103 149.692 150.329C149.744 150.555 149.831 150.747 149.97 150.886C150.092 150.973 150.214 151.043 150.354 151.095C150.493 151.148 150.684 151.165 150.928 151.165C151.068 151.165 151.224 151.148 151.381 151.095C151.538 151.061 151.695 151.008 151.851 150.939C152.008 150.869 152.165 150.817 152.304 150.73C152.444 150.66 152.566 150.59 152.67 150.521V144.302C152.67 144.302 152.705 144.146 152.757 144.076C152.809 144.006 152.897 143.971 152.966 143.971H154.395C154.395 143.971 154.551 144.006 154.604 144.076C154.673 144.146 154.691 144.215 154.691 144.302V152.419C154.691 152.419 154.656 152.576 154.604 152.628H154.673Z" fill="#757B7E"/>
<path d="M165.403 152.628C165.403 152.628 165.264 152.733 165.194 152.733H163.766C163.766 152.733 163.609 152.698 163.557 152.628C163.487 152.559 163.469 152.489 163.469 152.402V147.351C163.469 147.002 163.469 146.723 163.435 146.497C163.417 146.271 163.348 146.096 163.26 145.974C163.173 145.853 163.034 145.748 162.86 145.696C162.686 145.644 162.442 145.609 162.146 145.609C161.884 145.609 161.606 145.661 161.31 145.748C161.031 145.853 160.717 145.992 160.386 146.166V152.402C160.386 152.402 160.352 152.559 160.299 152.628C160.23 152.698 160.16 152.733 160.09 152.733H158.662C158.662 152.733 158.505 152.698 158.453 152.628C158.383 152.559 158.366 152.489 158.366 152.402V144.285C158.366 144.285 158.401 144.128 158.453 144.076C158.505 144.024 158.592 143.989 158.662 143.989H160.003C160.003 143.989 160.16 144.024 160.212 144.076C160.265 144.128 160.299 144.215 160.299 144.285V144.616C160.526 144.477 160.735 144.355 160.926 144.268C161.118 144.18 161.31 144.093 161.501 144.041C161.693 143.989 161.902 143.937 162.111 143.919C162.32 143.902 162.546 143.884 162.808 143.884C163.365 143.884 163.818 143.971 164.166 144.146C164.515 144.32 164.793 144.564 164.985 144.877C165.176 145.191 165.316 145.556 165.385 145.974C165.455 146.393 165.49 146.863 165.49 147.351V152.402C165.49 152.402 165.455 152.559 165.403 152.628Z" fill="#757B7E"/>
<path d="M171.116 142.717C171.116 142.717 170.976 142.804 170.907 142.804H169.409C169.409 142.804 169.252 142.77 169.182 142.717C169.113 142.665 169.078 142.578 169.078 142.508V141.15C169.078 141.15 169.113 140.993 169.182 140.941C169.252 140.888 169.322 140.854 169.409 140.854H170.907C170.907 140.854 171.064 140.888 171.116 140.941C171.168 140.993 171.203 141.08 171.203 141.15V142.508C171.203 142.508 171.168 142.665 171.116 142.717ZM171.081 152.628C171.081 152.628 170.942 152.733 170.872 152.733H169.444C169.444 152.733 169.287 152.698 169.235 152.628C169.165 152.559 169.148 152.489 169.148 152.402V144.285C169.148 144.285 169.182 144.128 169.235 144.076C169.287 144.024 169.374 143.989 169.444 143.989H170.872C170.872 143.989 171.029 144.024 171.081 144.076C171.133 144.128 171.168 144.215 171.168 144.285V152.402C171.168 152.402 171.133 152.559 171.081 152.628Z" fill="#757B7E"/>
<path d="M180.278 152.523C180.278 152.523 180.156 152.628 180.017 152.663C179.843 152.715 179.581 152.767 179.233 152.802C178.885 152.837 178.484 152.872 178.014 152.872C177.508 152.872 177.038 152.802 176.603 152.645C176.167 152.489 175.802 152.262 175.488 151.931C175.174 151.618 174.931 151.217 174.739 150.747C174.565 150.277 174.46 149.719 174.46 149.092V147.646C174.46 147.019 174.547 146.462 174.739 145.992C174.931 145.521 175.174 145.121 175.488 144.807C175.802 144.494 176.167 144.25 176.603 144.093C177.038 143.936 177.508 143.867 178.014 143.867C178.484 143.867 178.902 143.884 179.233 143.936C179.564 143.989 179.825 144.023 180.017 144.076C180.156 144.111 180.243 144.145 180.278 144.215C180.313 144.267 180.348 144.354 180.348 144.494V145.504C180.348 145.504 180.33 145.643 180.278 145.678C180.226 145.713 180.156 145.73 180.069 145.73H180.017C179.86 145.713 179.721 145.696 179.581 145.678C179.442 145.661 179.303 145.661 179.163 145.643C179.024 145.643 178.85 145.643 178.658 145.643C178.466 145.643 178.257 145.643 178.014 145.643C177.822 145.643 177.648 145.678 177.474 145.73C177.299 145.783 177.143 145.905 177.003 146.044C176.864 146.183 176.742 146.392 176.655 146.671C176.568 146.932 176.516 147.263 176.516 147.664V149.109C176.516 149.51 176.568 149.841 176.655 150.102C176.742 150.364 176.864 150.573 177.003 150.729C177.143 150.886 177.299 150.991 177.474 151.043C177.648 151.095 177.839 151.13 178.014 151.13C178.257 151.13 178.484 151.13 178.658 151.13C178.85 151.13 179.006 151.13 179.163 151.13C179.303 151.13 179.442 151.13 179.581 151.095C179.721 151.06 179.86 151.06 180.017 151.043H180.069C180.069 151.043 180.226 151.06 180.278 151.095C180.33 151.13 180.348 151.182 180.348 151.269V152.28C180.348 152.402 180.33 152.489 180.278 152.558V152.523Z" fill="#757B7E"/>
<path d="M189.997 152.628C189.997 152.628 189.858 152.715 189.788 152.715H188.465C188.465 152.715 188.308 152.68 188.255 152.628C188.203 152.576 188.168 152.489 188.168 152.419V152.175C187.803 152.384 187.437 152.558 187.088 152.68C186.723 152.802 186.357 152.854 185.991 152.854C185.678 152.854 185.347 152.82 185.033 152.75C184.72 152.68 184.423 152.541 184.18 152.349C183.918 152.158 183.727 151.896 183.553 151.566C183.396 151.235 183.309 150.799 183.309 150.277V150.207C183.309 149.319 183.605 148.639 184.197 148.204C184.789 147.768 185.747 147.524 187.106 147.524H188.081V146.828C188.081 146.323 187.977 145.974 187.75 145.818C187.524 145.643 187.176 145.574 186.723 145.574C186.218 145.574 185.747 145.574 185.277 145.609C184.807 145.643 184.441 145.661 184.197 145.696H184.127C184.127 145.696 183.971 145.696 183.918 145.643C183.866 145.608 183.849 145.539 183.849 145.434V144.441C183.849 144.267 183.953 144.163 184.145 144.11C184.458 144.041 184.824 143.989 185.277 143.936C185.712 143.884 186.2 143.867 186.74 143.867C187.855 143.867 188.691 144.111 189.283 144.598C189.875 145.086 190.154 145.835 190.154 146.828V152.419C190.154 152.419 190.119 152.576 190.067 152.628H189.997ZM188.029 148.883H187.054C186.705 148.883 186.409 148.918 186.183 148.97C185.956 149.022 185.782 149.109 185.66 149.214C185.538 149.318 185.434 149.458 185.399 149.632C185.347 149.806 185.329 149.98 185.329 150.207V150.277C185.329 150.66 185.416 150.921 185.591 151.043C185.765 151.165 186.061 151.235 186.444 151.235C186.723 151.235 187.001 151.2 187.28 151.113C187.559 151.026 187.803 150.921 188.029 150.799V148.883Z" fill="#757B7E"/>
<path d="M198.236 152.75C198.044 152.785 197.87 152.802 197.696 152.82C197.522 152.837 197.348 152.855 197.174 152.855C196.738 152.855 196.372 152.82 196.059 152.768C195.745 152.715 195.484 152.576 195.292 152.402C195.101 152.228 194.961 151.966 194.857 151.653C194.77 151.339 194.718 150.921 194.718 150.399V145.522L193.254 145.312C193.254 145.312 193.098 145.26 193.045 145.208C192.976 145.156 192.958 145.086 192.958 144.999V144.302C192.958 144.302 192.993 144.145 193.045 144.093C193.098 144.041 193.185 144.006 193.254 144.006H194.718V142.735C194.718 142.735 194.752 142.578 194.805 142.526C194.874 142.473 194.944 142.439 195.014 142.421L196.442 142.177H196.512C196.668 142.177 196.756 142.247 196.756 142.404V144.006H198.149C198.149 144.006 198.306 144.041 198.358 144.093C198.41 144.145 198.445 144.233 198.445 144.302V145.225C198.445 145.225 198.41 145.382 198.358 145.434C198.306 145.487 198.219 145.522 198.149 145.522H196.756V150.399C196.756 150.59 196.756 150.747 196.756 150.869C196.756 150.991 196.79 151.078 196.825 151.13C196.86 151.2 196.93 151.235 197.017 151.252C197.104 151.252 197.208 151.27 197.348 151.27H198.166C198.375 151.27 198.497 151.339 198.497 151.496V152.471C198.497 152.628 198.393 152.715 198.201 152.75H198.236Z" fill="#757B7E"/>
<path d="M203.549 142.717C203.549 142.717 203.409 142.804 203.34 142.804H201.842C201.842 142.804 201.685 142.77 201.615 142.717C201.546 142.648 201.511 142.578 201.511 142.508V141.15C201.511 141.15 201.546 140.993 201.615 140.941C201.685 140.871 201.755 140.854 201.842 140.854H203.34C203.34 140.854 203.496 140.888 203.549 140.941C203.601 140.993 203.636 141.08 203.636 141.15V142.508C203.636 142.508 203.601 142.665 203.549 142.717ZM203.496 152.628C203.496 152.628 203.357 152.733 203.287 152.733H201.859C201.859 152.733 201.702 152.698 201.65 152.628C201.58 152.559 201.563 152.489 201.563 152.402V144.285C201.563 144.285 201.598 144.128 201.65 144.076C201.702 144.024 201.789 143.989 201.859 143.989H203.287C203.287 143.989 203.444 144.024 203.496 144.076C203.549 144.128 203.583 144.215 203.583 144.285V152.402C203.583 152.402 203.549 152.559 203.496 152.628Z" fill="#757B7E"/>
<path d="M214.121 150.538C213.965 151.008 213.721 151.409 213.407 151.757C213.094 152.105 212.711 152.367 212.258 152.558C211.805 152.75 211.265 152.854 210.655 152.854C210.046 152.854 209.506 152.75 209.053 152.558C208.6 152.367 208.199 152.088 207.903 151.757C207.59 151.409 207.363 151.008 207.189 150.538C207.032 150.067 206.945 149.545 206.945 148.988V147.733C206.945 147.176 207.032 146.654 207.189 146.183C207.346 145.713 207.59 145.312 207.903 144.964C208.217 144.616 208.6 144.354 209.053 144.163C209.506 143.971 210.046 143.867 210.655 143.867C211.265 143.867 211.805 143.971 212.258 144.163C212.711 144.354 213.111 144.633 213.407 144.964C213.703 145.295 213.947 145.713 214.121 146.183C214.278 146.654 214.365 147.176 214.365 147.733V148.988C214.365 149.545 214.278 150.067 214.121 150.538ZM212.31 147.733C212.31 147.089 212.171 146.584 211.892 146.201C211.613 145.817 211.195 145.626 210.655 145.626C210.115 145.626 209.697 145.817 209.419 146.201C209.14 146.584 209.001 147.089 209.001 147.733V148.988C209.001 149.632 209.14 150.137 209.419 150.52C209.697 150.904 210.115 151.095 210.655 151.095C211.195 151.095 211.613 150.904 211.892 150.52C212.171 150.137 212.31 149.632 212.31 148.988V147.733Z" fill="#757B7E"/>
<path d="M224.747 152.628C224.747 152.628 224.607 152.733 224.538 152.733H223.109C223.109 152.733 222.952 152.698 222.9 152.628C222.831 152.559 222.813 152.489 222.813 152.402V147.351C222.813 147.002 222.813 146.723 222.778 146.497C222.761 146.271 222.691 146.096 222.604 145.974C222.517 145.853 222.378 145.748 222.203 145.696C222.029 145.644 221.785 145.609 221.489 145.609C221.228 145.609 220.949 145.661 220.653 145.748C220.375 145.853 220.061 145.992 219.73 146.166V152.402C219.73 152.402 219.695 152.559 219.643 152.628C219.573 152.698 219.504 152.733 219.434 152.733H218.006C218.006 152.733 217.849 152.698 217.797 152.628C217.727 152.559 217.71 152.489 217.71 152.402V144.285C217.71 144.285 217.744 144.128 217.797 144.076C217.849 144.024 217.936 143.989 218.006 143.989H219.364C219.364 143.989 219.521 144.024 219.573 144.076C219.626 144.128 219.66 144.215 219.66 144.285V144.616C219.887 144.477 220.096 144.355 220.288 144.268C220.479 144.18 220.671 144.093 220.862 144.041C221.054 143.989 221.263 143.937 221.472 143.919C221.681 143.902 221.907 143.884 222.169 143.884C222.726 143.884 223.179 143.971 223.527 144.146C223.876 144.32 224.154 144.564 224.346 144.877C224.538 145.191 224.677 145.556 224.747 145.974C224.816 146.393 224.851 146.863 224.851 147.351V152.402C224.851 152.402 224.816 152.559 224.764 152.628H224.747Z" fill="#757B7E"/>
<path d="M91.8459 147.263H88.7977V150.311H91.8459V147.263Z" fill="#E98A31"/>
<defs>
<linearGradient id="paint0_linear_98_6702" x1="63.855" y1="66.3383" x2="71.0661" y2="66.3383" gradientUnits="userSpaceOnUse">
<stop/>
<stop offset="1" stop-opacity="0"/>
</linearGradient>
<linearGradient id="paint1_linear_98_6702" x1="151.137" y1="66.3383" x2="158.331" y2="66.3383" gradientUnits="userSpaceOnUse">
<stop/>
<stop offset="1" stop-opacity="0"/>
</linearGradient>
<linearGradient id="paint2_linear_98_6702" x1="197.121" y1="66.3383" x2="205.726" y2="66.3383" gradientUnits="userSpaceOnUse">
<stop/>
<stop offset="1" stop-opacity="0"/>
</linearGradient>
<linearGradient id="paint3_linear_98_6702" x1="106.808" y1="66.3383" x2="114.002" y2="66.3383" gradientUnits="userSpaceOnUse">
<stop stop-opacity="0"/>
<stop offset="1"/>
</linearGradient>
<linearGradient id="paint4_linear_98_6702" x1="177.735" y1="66.3383" x2="186.601" y2="66.3383" gradientUnits="userSpaceOnUse">
<stop stop-opacity="0"/>
<stop offset="1"/>
</linearGradient>
<linearGradient id="paint5_linear_98_6702" x1="165.49" y1="6.50694" x2="165.49" y2="0.114502" gradientUnits="userSpaceOnUse">
<stop stop-opacity="0"/>
<stop offset="1"/>
</linearGradient>
</defs>
</svg>
