<svg width="101" height="101" viewBox="0 0 101 101" fill="none" xmlns="http://www.w3.org/2000/svg">
<path d="M92.8104 24.0666C92.8104 22.3928 92.1171 20.8711 90.9842 19.7889L88.6847 22.2576C89.1411 22.7309 89.4287 23.3735 89.4287 24.0666V71.3079H11.6487V24.0666C11.6487 22.6633 12.7816 21.5135 14.2018 21.5135H68.7832L72.4353 18.1318H14.2018C10.9198 18.1318 8.26692 20.8034 8.26692 24.0666V78.139C8.26692 81.4211 10.9198 84.0757 14.2018 84.0757H35.7436L32.3431 89.3512H24.905C23.9752 89.3512 23.2141 90.1121 23.2141 91.0421C23.2141 91.9721 23.9752 92.733 24.905 92.733H76.1536C77.0852 92.733 77.8444 91.9721 77.8444 91.0421C77.8444 90.1121 77.0852 89.3512 76.1536 89.3512H68.7156L65.3151 84.0757H86.8736C90.1388 84.0757 92.8104 81.4211 92.8104 78.139V24.0666Z" fill="#3E3766"/>
<path d="M52.618 45.1505V45.1692C45.6686 41.5169 41.1539 48.3818 39.6828 50.6307C36.1152 56.0414 38.2609 64.6124 38.3471 64.9675C38.5331 65.6456 39.0911 66.1512 39.7843 66.2356C39.8519 66.2356 39.9197 66.2543 39.9873 66.2543C40.596 66.2543 41.1709 65.916 41.4752 65.3733C42.488 63.532 44.1299 62.9892 46.7338 62.2639C48.6444 61.7058 50.8088 61.0955 52.7365 59.5584C56.4057 56.6163 56.9467 53.5221 56.7438 51.4423C56.4563 48.4494 54.4611 46.1161 52.618 45.1505ZM91.8296 13.8875C93.0469 12.5687 93.0131 10.5226 91.7448 9.25451H91.7263C90.4582 7.96951 88.4308 7.93577 87.1119 9.17003L52.4322 41.2458L54.1908 42.1589C56.186 43.2072 58.5515 45.4561 59.6185 48.7025L91.8296 13.8875Z" fill="#F9810D"/>
</svg>
