<svg width="162" height="166" viewBox="0 0 162 166" fill="none" xmlns="http://www.w3.org/2000/svg">
<g clip-path="url(#clip0_117_368)">
<path d="M151.651 93.6192H7.45754L-3.3584 79.2001L11.0639 64.7778H148.048L162.467 79.2001L151.651 93.6192Z" fill="#803E00"/>
<path d="M140.838 165.715H18.273C14.2909 165.715 11.0635 162.487 11.0635 158.505V7.10153C11.0635 3.11946 14.2909 -0.108002 18.273 -0.108002H104.791L148.048 43.1492V158.505C148.048 162.49 144.82 165.715 140.838 165.715Z" fill="#E6E6E5"/>
<path d="M104.791 -0.108002V35.9397C104.791 39.9217 108.018 43.1492 112.001 43.1492H148.048L104.791 -0.108002Z" fill="#B4B4B4"/>
<path d="M155.258 144.086H3.85406C-0.128002 144.086 -3.35547 140.858 -3.35547 136.876V79.2001H162.47V136.88C162.467 140.858 159.24 144.086 155.258 144.086Z" fill="#E98A31"/>
<path d="M65.3917 106.758C65.3917 109.923 64.4575 112.367 62.5955 114.085C60.7269 115.813 58.0809 116.669 54.6477 116.669H52.4982V126.06H44.8477V97.7515H54.6444C58.2214 97.7515 60.9066 98.5323 62.6967 100.09C64.4934 101.658 65.3917 103.88 65.3917 106.758ZM52.4982 110.439H53.8931C55.0429 110.439 55.9543 110.116 56.6338 109.466C57.31 108.819 57.6497 107.93 57.6497 106.797C57.6497 104.886 56.5946 103.932 54.4745 103.932H52.4982V110.439ZM93.9326 111.308C93.9326 116.035 92.6325 119.671 90.0289 122.229C87.4287 124.79 83.7733 126.064 79.0627 126.064H69.903V97.7548H79.6997C84.2404 97.7548 87.7488 98.9145 90.2217 101.24C92.6945 103.563 93.9326 106.918 93.9326 111.308ZM85.9946 111.576C85.9946 108.979 85.4817 107.058 84.456 105.804C83.4335 104.549 81.8721 103.926 79.7814 103.926H77.5535V119.779H79.2587C81.5846 119.779 83.2865 119.102 84.3711 117.753C85.4523 116.407 85.9946 114.353 85.9946 111.576ZM106.535 126.06H99.0057V97.7515H115.738V103.886H106.542V109.289H115.025V115.424H106.542V126.057H106.535V126.06Z" fill="white"/>
</g>
<defs>
<clipPath id="clip0_117_368">
<rect width="162" height="166" fill="white"/>
</clipPath>
</defs>
</svg>
