<svg width="101" height="100" viewBox="0 0 101 100" fill="none" xmlns="http://www.w3.org/2000/svg">
<path d="M54.7188 77.9688V90H65.1875C69.875 90 73.625 93.75 73.625 98.4375H27.375C27.375 96.0938 28.3125 94.0625 29.875 92.5C31.4375 90.9375 33.4688 90 35.8125 90H46.2812V77.9688M23.1562 28.9062V50.625C23.1562 62.3438 32.6875 71.875 44.4063 71.875H56.5938C68.3125 71.875 77.8438 62.3438 77.8438 50.625V28.9062M77.8438 36.7188H23.1562" stroke="#3E3766" stroke-width="3" stroke-miterlimit="10" stroke-linecap="round" stroke-linejoin="round"/>
<path d="M67.0625 8.125C65.5 7.34375 63.625 6.875 61.75 6.875C55.1875 6.875 49.0937 9.53125 44.7187 13.9062C40.3437 18.2812 37.6875 24.2187 37.6875 30.9375V32.1875H32.5312V13.4375C32.5312 6.875 37.8438 1.5625 44.4062 1.5625H56.5938C61.125 1.5625 65.1875 4.21875 67.0625 8.125Z" fill="#C3D4E0"/>
<path d="M68.4688 13.4375C68.4688 6.875 63.1563 1.5625 56.5938 1.5625H44.4063C37.8438 1.5625 32.5312 6.875 32.5312 13.4375V32.0312H68.3125L68.4688 13.4375Z" stroke="#3E3766" stroke-width="3" stroke-miterlimit="10" stroke-linecap="round" stroke-linejoin="round"/>
<path d="M67.2188 55.625C65.3438 59.5312 61.2813 62.3438 56.5938 62.3438H44.4063C37.8438 62.3438 32.5312 57.0312 32.5312 50.4688V32.0312H38.1563V32.8125C38.1563 46.0938 48.9375 56.875 62.2188 56.875C63.9375 56.875 65.6562 56.4062 67.2188 55.625Z" fill="#C3D4E0"/>
<path d="M32.5312 32.0312V50.625C32.5312 57.1875 37.8438 62.5 44.4063 62.5H56.5938C63.1563 62.5 68.4688 57.1875 68.4688 50.625V32.0312H32.5312Z" stroke="#3E3766" stroke-width="3" stroke-miterlimit="10" stroke-linecap="round" stroke-linejoin="round"/>
<path d="M36.4375 40.625V51.1138C36.4375 54.8157 40.5951 57.8125 45.731 57.8125H55.269C60.4049 57.8125 64.5625 54.8157 64.5625 51.1138V40.625H36.4375Z" fill="#F9810D"/>
</svg>
