<svg width="111" height="100" viewBox="0 0 111 100" fill="none" xmlns="http://www.w3.org/2000/svg">
<g clip-path="url(#clip0_62_16200)">
<path d="M47.4434 70.3608C46.9353 69.8074 46.9716 68.9455 47.525 68.4374C48.0785 67.9293 48.9404 67.9656 49.4484 68.519L55.2822 74.87C55.7903 75.4234 55.754 76.2853 55.2006 76.7934C55.0917 76.8932 54.9647 76.9749 54.8286 77.0384L49.8386 79.4517C49.1672 79.7783 48.3506 79.4971 48.024 78.8166C47.6974 78.1452 47.9787 77.3287 48.6591 77.0021L52.0433 75.369L47.4434 70.3699V70.3608Z" fill="#F9810D"/>
<path fill-rule="evenodd" clip-rule="evenodd" d="M38.8243 73.618C60.0727 62.2861 83.8343 59.5461 96.1279 67.2852C85.6579 49.1487 48.2237 58.2668 38.8243 73.618Z" fill="#C3D4E0"/>
<path d="M28.4087 80.0596C27.9823 79.4427 28.1365 78.5989 28.7535 78.1634C29.3704 77.737 30.2142 77.8913 30.6497 78.5082C33.3534 82.4004 36.5016 85.8844 40.0672 88.96C43.66 92.0538 47.6974 94.7484 52.1612 97.0529C52.506 97.2253 52.8598 97.316 53.2046 97.307H53.2409C53.5675 97.2888 53.9123 97.189 54.2389 96.9894L60.118 93.4964C60.4537 93.2968 60.7168 93.0337 60.8892 92.7252C61.0616 92.4167 61.1614 92.0538 61.1614 91.6728V91.6637C61.1614 91.2736 61.0707 90.9107 60.8983 90.6022C60.7259 90.2937 60.4628 90.0306 60.1271 89.831C56.4799 87.6263 53.0957 85.1404 50.0654 82.2825C47.0351 79.4246 44.3586 76.1946 42.1449 72.502C41.7638 71.8579 41.9725 71.0232 42.6076 70.6421C43.2518 70.2611 44.0865 70.4697 44.4675 71.1048C46.5452 74.5616 49.0583 77.6009 51.9253 80.2955C54.7923 82.9992 58.0313 85.3763 61.5243 87.4902C62.2683 87.9348 62.858 88.5427 63.2572 89.2594C63.6473 89.958 63.856 90.7655 63.8651 91.6274V91.6546V91.6637C63.8651 92.5347 63.6473 93.3512 63.2391 94.0589C62.8308 94.7666 62.2411 95.3745 61.488 95.819L55.6089 99.312C54.8921 99.7385 54.1119 99.9653 53.3225 100.002H53.2862C52.4788 100.029 51.6713 99.8473 50.9182 99.4572C46.2639 97.062 42.0542 94.2494 38.289 91.0014C34.5419 87.7715 31.2394 84.1152 28.4178 80.0506L28.4087 80.0596Z" fill="#3E3766"/>
<path d="M21.8219 46.8714C21.4499 46.2273 21.6767 45.3926 22.3209 45.0206C22.9651 44.6486 23.7997 44.8754 24.1717 45.5196L40.0037 72.9466C40.3757 73.5907 40.1489 74.4254 39.5047 74.7974C38.8605 75.1694 38.0258 74.9426 37.6539 74.2984L21.8219 46.8714ZM33.6528 76.8932C34.0248 77.5374 33.807 78.3721 33.1628 78.7441C32.5187 79.116 31.684 78.8983 31.312 78.2541L15.4165 50.7183C15.0445 50.0741 15.2623 49.2394 15.9064 48.8675C16.5506 48.4955 17.3853 48.7132 17.7573 49.3574L33.6528 76.8932Z" fill="#3E3766"/>
<path d="M7.45972 53.4311C23.0739 45.3926 35.1861 37.0094 43.5058 28.2541C51.7076 19.6259 56.2077 10.6439 56.7157 1.28988C56.752 0.545918 57.3962 -0.0347393 58.1402 0.00155177C58.612 0.0287701 59.0202 0.29188 59.247 0.672936L97.3073 66.5866C97.6793 67.2307 97.4615 68.0654 96.8174 68.4374C96.3637 68.7005 95.8284 68.6733 95.4111 68.4102C87.3817 63.3567 77.3744 62.3949 65.6343 65.0442C53.6945 67.7388 39.9674 74.1623 24.698 83.8248C24.6526 83.852 24.6163 83.8702 24.5709 83.8974C21.8128 85.467 18.6646 86.2654 15.2804 85.3037C11.9689 84.3601 8.48494 81.7109 5.01007 76.3851C4.33869 75.3599 3.73081 74.3075 3.18645 73.2732C1.36282 69.7348 0.382963 66.1692 0.655146 62.9121C0.945474 59.5098 2.57857 56.4977 6.00808 54.2567C6.46171 53.9664 6.94257 53.676 7.45972 53.4129V53.4311ZM45.4746 30.1231C36.9371 39.1052 24.58 47.6699 8.70269 55.8444C8.26719 56.0712 7.85892 56.3071 7.48694 56.5521C4.84676 58.2759 3.58565 60.5713 3.3679 63.148C3.13201 65.8698 4.003 68.9455 5.5998 72.0393C6.08973 73.001 6.66131 73.9627 7.28734 74.9154C10.3539 79.6151 13.3026 81.9195 16.0244 82.6907C18.6011 83.4256 21.0598 82.7814 23.2373 81.5476L23.2554 81.5294C38.7789 71.7036 52.7872 65.1621 65.0445 62.404C75.5417 60.036 84.7687 60.4171 92.6076 63.8647L58.9658 5.59945C57.4869 14.1188 52.9324 22.2843 45.4837 30.1231H45.4746Z" fill="#3E3766"/>
<path d="M97.6067 45.4379C97.4706 46.1728 96.7539 46.6537 96.019 46.5176C95.2841 46.3815 94.8032 45.6648 94.9393 44.9299C96.028 39.332 94.6853 33.4891 91.8546 28.5808C88.8878 23.4456 84.3151 19.3538 79.189 17.6299C78.4813 17.394 78.0912 16.6229 78.3361 15.9152C78.572 15.2075 79.3432 14.8174 80.0509 15.0623C85.803 16.9948 90.9201 21.5494 94.2044 27.238C97.3436 32.6816 98.8315 39.1868 97.6067 45.447V45.4379Z" fill="#F9810D"/>
<path d="M79.2253 5.16398C78.4813 5.10954 77.9097 4.46537 77.9642 3.71233C78.0186 2.96837 78.6628 2.39678 79.4158 2.45122C80.6225 2.54195 81.8292 2.71433 82.9995 2.95929C91.6187 4.76477 98.8406 10.653 103.704 18.7096C108.512 26.6846 111.025 36.8007 110.254 47.1799C110.091 49.3574 109.782 51.553 109.32 53.7486C109.165 54.4835 108.449 54.9553 107.714 54.8011C106.979 54.6468 106.507 53.9301 106.661 53.1952C107.097 51.1357 107.387 49.058 107.541 46.9894C108.267 37.1727 105.908 27.6191 101.381 20.1159C96.899 12.6853 90.285 7.26886 82.4461 5.62669C81.4027 5.40894 80.3231 5.2547 79.2253 5.17305V5.16398Z" fill="#F9810D"/>
<path fill-rule="evenodd" clip-rule="evenodd" d="M14.9175 55.3545L26.8664 76.0404C26.8664 76.0404 20.3793 81.8106 15.8067 79.8328C11.234 77.8549 4.64716 66.7317 5.86291 62.2044C6.39821 58.1942 14.9175 55.3454 14.9175 55.3454V55.3545Z" fill="#F9810D"/>
</g>
<defs>
<clipPath id="clip0_62_16200">
<rect width="110" height="100" fill="white" transform="translate(0.5)"/>
</clipPath>
</defs>
</svg>
