<svg width="28" height="23" viewBox="0 0 28 23" fill="none" xmlns="http://www.w3.org/2000/svg">
<g clip-path="url(#clip0_98_6755)">
<path d="M249.954 -135C232.554 -127.3 213.954 -122.1 194.354 -119.7C214.354 -131.7 229.754 -150.7 236.954 -173.3C218.254 -162.2 197.554 -154.1 175.454 -149.8C157.754 -168.7 132.454 -180.5 104.754 -180.5C51.2541 -180.5 7.95407 -137.1 7.95407 -83.6C7.95407 -76 8.75407 -68.6 10.4541 -61.5C-70.0459 -65.5 -141.546 -104.1 -189.246 -162.8C-197.546 -148.5 -202.346 -131.8 -202.346 -114.1C-202.346 -80.5 -185.246 -50.8 -159.246 -33.4C-175.046 -33.8 -190.046 -38.2 -203.046 -45.5V-44.3C-203.046 2.7 -169.646 41.8 -125.346 50.7C-133.446 52.9 -142.046 54.1 -150.846 54.1C-157.046 54.1 -163.146 53.5 -169.046 52.3C-156.746 90.8 -120.946 118.8 -78.5459 119.6C-111.646 145.6 -153.446 161.1 -198.846 161.1C-206.646 161.1 -214.346 160.6 -221.946 159.7C-179.246 187.5 -128.346 203.5 -73.7459 203.5C104.454 203.5 201.954 55.8 201.954 -72.3C201.954 -76.5 201.854 -80.7 201.654 -84.8C220.454 -98.5 236.954 -115.5 249.954 -135ZM192.154 -97.8L185.154 -92.7L185.554 -84.1C185.754 -80.3 185.854 -76.3 185.854 -72.3C185.854 -42.1 179.954 -10.5 168.854 19.2C157.154 50.4 140.354 78.6 118.854 103C95.8541 129.1 68.6541 149.5 37.7541 163.8C3.95406 179.5 -33.5459 187.4 -73.7459 187.4C-102.646 187.4 -131.146 182.6 -158.246 173.2C-148.346 171.3 -138.646 168.6 -129.146 165.3C-107.446 157.7 -87.2459 146.6 -69.0459 132.3L-33.7459 104.6L-78.6459 103.8C-104.746 103.3 -128.346 90.4 -142.946 69.9C-135.646 69.4 -128.446 68.1 -121.446 66.2L-60.7459 46L-122.446 35.1C-152.046 29.2 -175.246 7.2 -183.746 -20.7C-175.946 -18.7 -168.346 -17.9 -159.846 -17.4C-159.846 -17.4 -128.046 -16 -104.046 -17.5C-117.046 -23.7 -150.446 -46.7 -150.446 -46.7C-172.946 -61.8 -186.446 -86.9 -186.446 -114.1C-186.446 -120.5 -185.646 -126.9 -184.246 -133.1C-162.346 -110.7 -137.246 -92 -109.146 -77.6C-72.1459 -58.5 -32.2459 -47.8 9.45407 -45.7L30.6541 -44.6L25.8541 -65.3C24.4541 -71.2 23.7541 -77.4 23.7541 -83.8C23.7541 -128.2 60.0541 -164.5 104.654 -164.5C126.954 -164.5 148.454 -155.2 163.654 -138.9L169.754 -132.4L178.454 -134.1C182.954 -135 187.354 -136 191.754 -137.2C190.754 -135.8 186.054 -131.1 180.754 -126.4C176.254 -122.4 162.954 -109.9 162.954 -109.9C162.954 -109.9 175.954 -105.8 184.054 -104.9C192.154 -104 201.454 -105.5 202.954 -105.7C200.154 -103.4 195.154 -99.9 192.154 -97.8Z" fill="#E98A31"/>
<g clip-path="url(#clip1_98_6755)">
<path fill-rule="evenodd" clip-rule="evenodd" d="M9.51498 18.9994C17.062 18.9994 21.19 12.8433 21.19 7.50433C21.19 7.32933 21.19 7.15535 21.178 6.98235C21.9794 6.41206 22.6726 5.7035 23.225 4.88958C22.4755 5.21722 21.6815 5.43161 20.869 5.5263C21.7219 5.02529 22.3632 4.23091 22.673 3.29144C21.8657 3.76245 20.9846 4.09376 20.067 4.27142C19.3141 3.48911 18.2849 3.03264 17.1997 2.99993C16.1144 2.96722 15.0596 3.36107 14.261 4.09661C13.739 4.57724 13.3541 5.18794 13.1455 5.86614C12.9369 6.54435 12.9123 7.2656 13.074 7.95648C11.4486 7.87888 9.85715 7.46331 8.4011 6.73675C6.94505 6.01019 5.65631 4.98836 4.61698 3.73626C4.09323 4.62563 3.93305 5.68284 4.16985 6.68743C4.40666 7.69203 5.02215 8.56653 5.88798 9.12835C5.23576 9.10984 4.59725 8.93688 4.02498 8.62347V8.67425C4.02598 10.5972 5.40298 12.2532 7.31698 12.6342C6.71277 12.7967 6.0796 12.8207 5.46498 12.7035C6.00198 14.3495 7.54298 15.4762 9.29798 15.5092C7.57169 16.8425 5.39065 17.4443 3.22498 17.1845C5.10777 18.3719 7.28903 19.0003 9.51498 18.9965" fill="#E98A31"/>
</g>
</g>
<defs>
<clipPath id="clip0_98_6755">
<rect width="27" height="23" fill="white" transform="translate(0.224976)"/>
</clipPath>
<clipPath id="clip1_98_6755">
<rect width="20" height="16" fill="white" transform="translate(3.22498 3)"/>
</clipPath>
</defs>
</svg>
