<svg width="20" height="15" viewBox="0 0 20 15" fill="none" xmlns="http://www.w3.org/2000/svg">
<path d="M2.15385 15H17.8462C19.0359 15 20 14.0028 20 12.7723V2.22772C20 0.997171 19.0359 0 17.8462 0H2.15385C0.964103 0 0 0.997171 0 2.22772V12.7617C0 13.9922 0.964103 15 2.15385 15ZM17.8462 13.4088H2.15385C1.81538 13.4088 1.53846 13.1223 1.53846 12.7723V3.79774L9.57949 9.29279C9.71282 9.37765 9.85641 9.42009 10 9.42009C10.1436 9.42009 10.2974 9.37765 10.4205 9.29279L18.4615 3.79774V12.7723C18.4615 13.1223 18.1846 13.4088 17.8462 13.4088ZM2.15385 1.59123H17.8462C18.0821 1.59123 18.2769 1.72914 18.3795 1.9413L10 7.66973L1.62051 1.9413C1.72308 1.73975 1.91795 1.59123 2.15385 1.59123Z" fill="white"/>
</svg>
