<svg width="28" height="23" viewBox="0 0 28 23" fill="none" xmlns="http://www.w3.org/2000/svg">
<rect x="1.72498" y="4" width="24" height="16" rx="6" fill="#E98A31"/>
<path d="M26.4129 7.87478C26.4138 6.56449 25.9176 5.30264 25.0245 4.3439C24.1313 3.38517 22.9077 2.80095 21.6007 2.70916C16.3716 2.43729 11.061 2.43729 5.86817 2.69104C3.31255 2.69104 1.03786 5.15603 1.03786 7.87478C0.774327 10.5024 0.774327 13.1497 1.03786 15.7773C1.03543 17.0513 1.53734 18.2744 2.43393 19.1795C3.33053 20.0846 4.5489 20.598 5.82286 20.6076C8.45098 20.7526 11.0851 20.8251 13.7254 20.8251C16.3656 20.8251 18.9846 20.7556 21.5825 20.6167C22.852 20.6144 24.0697 20.1135 24.9733 19.2218C25.8768 18.3301 26.3938 17.1191 26.4129 15.8498C26.784 13.2044 26.784 10.5202 26.4129 7.87478ZM24.6004 15.6957C24.5959 15.7318 24.5959 15.7684 24.6004 15.8045C24.598 16.2051 24.5166 16.6014 24.3608 16.9705C24.205 17.3396 23.9779 17.6744 23.6925 17.9555C23.4071 18.2367 23.069 18.4588 22.6976 18.6091C22.3262 18.7594 21.9288 18.8349 21.5282 18.8313C16.3117 19.1032 11.0846 19.1032 5.86817 18.8313C5.46442 18.8279 5.06539 18.7441 4.6943 18.585C4.32322 18.4258 3.98749 18.1944 3.70666 17.9043C3.42582 17.6142 3.20549 17.2712 3.05849 16.8951C2.91148 16.519 2.84073 16.1175 2.85036 15.7138C2.5917 13.1617 2.5917 10.59 2.85036 8.03791C2.85444 8.00481 2.85444 7.97133 2.85036 7.93822C2.84334 7.08759 3.15306 6.26476 3.71925 5.62989C4.28544 4.99502 5.06759 4.59352 5.91348 4.50353C8.50536 4.38572 11.1154 4.33135 13.7254 4.33135C16.3354 4.33135 18.9454 4.38572 21.5372 4.50353H21.5825C23.1322 4.50353 24.6004 6.17103 24.6004 7.93822C24.5959 7.98342 24.5959 8.02896 24.6004 8.07416C24.9552 10.5962 24.9552 13.1555 24.6004 15.6776V15.6957Z" fill="#E98A31"/>
<path d="M18.0663 11.0557L11.5957 7.72075C11.4898 7.666 11.3741 7.63266 11.2553 7.62261C11.1365 7.61257 11.0169 7.62602 10.9032 7.66221C10.7896 7.69839 10.6843 7.7566 10.5932 7.83351C10.5021 7.91042 10.427 8.00452 10.3722 8.11043C10.3175 8.21635 10.2841 8.33202 10.2741 8.45083C10.2641 8.56963 10.2775 8.68925 10.3137 8.80286C10.3499 8.91647 10.4081 9.02183 10.485 9.11295C10.5619 9.20406 10.656 9.27913 10.7619 9.33387L15.6829 11.8623L12.0579 13.7382V11.8623C12.0579 11.622 11.9624 11.3914 11.7924 11.2215C11.6225 11.0515 11.392 10.9561 11.1516 10.9561C10.9113 10.9561 10.6808 11.0515 10.5108 11.2215C10.3408 11.3914 10.2454 11.622 10.2454 11.8623V15.2336C10.2454 15.4739 10.3408 15.7044 10.5108 15.8744C10.6808 16.0443 10.9113 16.1398 11.1516 16.1398C11.2965 16.1404 11.4395 16.1062 11.5685 16.0401L18.0391 12.6689C18.1869 12.5923 18.3107 12.4766 18.397 12.3343C18.4834 12.192 18.5288 12.0287 18.5285 11.8623C18.5315 11.6987 18.4901 11.5373 18.4087 11.3953C18.3273 11.2532 18.209 11.1359 18.0663 11.0557Z" fill="black"/>
</svg>
